<svg width="82" height="82" viewBox="0 0 82 82" fill="none" xmlns="http://www.w3.org/2000/svg">
<circle cx="41" cy="41" r="41" fill="#BB7119"/>
<path d="M16.44 42.272C17.0693 42.3893 17.5867 42.704 17.992 43.216C18.3973 43.728 18.6 44.3147 18.6 44.976C18.6 45.5733 18.4507 46.1013 18.152 46.56C17.864 47.008 17.4427 47.36 16.888 47.616C16.3333 47.872 15.6773 48 14.92 48H10.104V36.832H14.712C15.4693 36.832 16.12 36.9547 16.664 37.2C17.2187 37.4453 17.6347 37.7867 17.912 38.224C18.2 38.6613 18.344 39.1573 18.344 39.712C18.344 40.3627 18.168 40.9067 17.816 41.344C17.4747 41.7813 17.016 42.0907 16.44 42.272ZM12.344 41.44H14.392C14.9253 41.44 15.336 41.3227 15.624 41.088C15.912 40.8427 16.056 40.496 16.056 40.048C16.056 39.6 15.912 39.2533 15.624 39.008C15.336 38.7627 14.9253 38.64 14.392 38.64H12.344V41.44ZM14.6 46.176C15.144 46.176 15.5653 46.048 15.864 45.792C16.1733 45.536 16.328 45.1733 16.328 44.704C16.328 44.224 16.168 43.8507 15.848 43.584C15.528 43.3067 15.096 43.168 14.552 43.168H12.344V46.176H14.6ZM19.4013 43.536C19.4013 42.64 19.5773 41.8453 19.9293 41.152C20.2919 40.4587 20.7773 39.9253 21.3853 39.552C22.0039 39.1787 22.6919 38.992 23.4493 38.992C24.1106 38.992 24.6866 39.1253 25.1773 39.392C25.6786 39.6587 26.0786 39.9947 26.3773 40.4V39.136H28.6333V48H26.3773V46.704C26.0893 47.12 25.6893 47.4667 25.1773 47.744C24.6759 48.0107 24.0946 48.144 23.4333 48.144C22.6866 48.144 22.0039 47.952 21.3853 47.568C20.7773 47.184 20.2919 46.6453 19.9293 45.952C19.5773 45.248 19.4013 44.4427 19.4013 43.536ZM26.3773 43.568C26.3773 43.024 26.2706 42.56 26.0573 42.176C25.8439 41.7813 25.5559 41.4827 25.1933 41.28C24.8306 41.0667 24.4413 40.96 24.0253 40.96C23.6093 40.96 23.2253 41.0613 22.8733 41.264C22.5213 41.4667 22.2333 41.7653 22.0093 42.16C21.7959 42.544 21.6893 43.0027 21.6893 43.536C21.6893 44.0693 21.7959 44.5387 22.0093 44.944C22.2333 45.3387 22.5213 45.6427 22.8733 45.856C23.2359 46.0693 23.6199 46.176 24.0253 46.176C24.4413 46.176 24.8306 46.0747 25.1933 45.872C25.5559 45.6587 25.8439 45.36 26.0573 44.976C26.2706 44.5813 26.3773 44.112 26.3773 43.568ZM35.325 39.008C36.381 39.008 37.2343 39.344 37.885 40.016C38.5357 40.6773 38.861 41.6053 38.861 42.8V48H36.621V43.104C36.621 42.4 36.445 41.8613 36.093 41.488C35.741 41.104 35.261 40.912 34.653 40.912C34.0343 40.912 33.5437 41.104 33.181 41.488C32.829 41.8613 32.653 42.4 32.653 43.104V48H30.413V39.136H32.653V40.24C32.9517 39.856 33.3303 39.5573 33.789 39.344C34.2583 39.12 34.7703 39.008 35.325 39.008ZM40.0071 43.552C40.0071 42.6667 40.1885 41.8827 40.5511 41.2C40.9245 40.5067 41.4258 39.968 42.0551 39.584C42.6845 39.2 43.3778 39.008 44.1351 39.008C44.7645 39.008 45.3191 39.1307 45.7991 39.376C46.2898 39.6107 46.6845 39.9147 46.9831 40.288V39.136H49.2391V52.224H46.9831V46.784C46.6845 47.168 46.2845 47.488 45.7831 47.744C45.2818 48 44.7165 48.128 44.0871 48.128C43.3405 48.128 42.6525 47.936 42.0231 47.552C41.4045 47.1573 40.9138 46.6133 40.5511 45.92C40.1885 45.2267 40.0071 44.4373 40.0071 43.552ZM46.9831 43.568C46.9831 43.024 46.8711 42.5547 46.6471 42.16C46.4231 41.7653 46.1298 41.4667 45.7671 41.264C45.4151 41.0613 45.0365 40.96 44.6311 40.96C44.2365 40.96 43.8578 41.0613 43.4951 41.264C43.1431 41.4667 42.8551 41.7653 42.6311 42.16C42.4071 42.544 42.2951 43.008 42.2951 43.552C42.2951 44.096 42.4071 44.5707 42.6311 44.976C42.8551 45.3707 43.1431 45.6693 43.4951 45.872C43.8578 46.0747 44.2365 46.176 44.6311 46.176C45.0365 46.176 45.4151 46.0747 45.7671 45.872C46.1298 45.6693 46.4231 45.3707 46.6471 44.976C46.8711 44.5813 46.9831 44.112 46.9831 43.568ZM59.3869 39.136V48H57.1309V46.88C56.8429 47.264 56.4642 47.568 55.9949 47.792C55.5362 48.0053 55.0349 48.112 54.4909 48.112C53.7975 48.112 53.1842 47.968 52.6509 47.68C52.1175 47.3813 51.6962 46.9493 51.3869 46.384C51.0882 45.808 50.9389 45.1253 50.9389 44.336V39.136H53.1789V44.016C53.1789 44.72 53.3549 45.264 53.7069 45.648C54.0589 46.0213 54.5389 46.208 55.1469 46.208C55.7655 46.208 56.2509 46.0213 56.6029 45.648C56.9549 45.264 57.1309 44.72 57.1309 44.016V39.136H59.3869ZM65.125 48.144C64.2717 48.144 63.5037 47.9573 62.821 47.584C62.1383 47.2 61.5997 46.6613 61.205 45.968C60.821 45.2747 60.629 44.4747 60.629 43.568C60.629 42.6613 60.8263 41.8613 61.221 41.168C61.6263 40.4747 62.1757 39.9413 62.869 39.568C63.5623 39.184 64.3357 38.992 65.189 38.992C66.0423 38.992 66.8157 39.184 67.509 39.568C68.2023 39.9413 68.7463 40.4747 69.141 41.168C69.5463 41.8613 69.749 42.6613 69.749 43.568C69.749 44.4747 69.541 45.2747 69.125 45.968C68.7197 46.6613 68.165 47.2 67.461 47.584C66.7677 47.9573 65.989 48.144 65.125 48.144ZM65.125 46.192C65.5303 46.192 65.909 46.096 66.261 45.904C66.6237 45.7013 66.9117 45.4027 67.125 45.008C67.3383 44.6133 67.445 44.1333 67.445 43.568C67.445 42.7253 67.221 42.08 66.773 41.632C66.3357 41.1733 65.797 40.944 65.157 40.944C64.517 40.944 63.9783 41.1733 63.541 41.632C63.1143 42.08 62.901 42.7253 62.901 43.568C62.901 44.4107 63.109 45.0613 63.525 45.52C63.9517 45.968 64.485 46.192 65.125 46.192Z" fill="white"/>
</svg>
