<svg width="71" height="20" viewBox="0 0 71 20" fill="none" xmlns="http://www.w3.org/2000/svg">
<mask id="mask0_596_29250" style="mask-type:alpha" maskUnits="userSpaceOnUse" x="0" y="0" width="71" height="20">
<path d="M24.0244 6.98532C24.0461 7.02661 24.2281 6.91979 24.2281 6.72318C24.2281 3.70205 27.2145 4.03824 29.3563 4.03693C30.3395 4.03693 30.8828 4.03693 31.6209 4.05987C31.8389 4.06708 32.0997 4.17521 32.2423 4.32463C32.3074 4.39278 32.1709 4.70079 32.0589 4.85414C31.3411 5.83519 30.6247 6.81886 29.8588 7.76518C29.6904 7.97358 29.3352 8.1112 29.0487 8.14462C28.5163 8.20753 27.9717 8.15904 27.4325 8.17542C25.0667 8.24817 24.0026 9.25936 23.9768 11.5229C23.9503 13.8835 23.9721 16.244 23.968 18.6045C23.966 19.9513 23.9245 19.9847 22.4911 19.9939C19.9453 20.0096 20.1096 20.1433 20.1123 17.6674C20.1171 13.6056 20.111 9.54378 20.1157 5.48262C20.1171 4.11099 20.1857 4.05069 21.5587 4.0448C23.121 4.03737 23.9254 4.77616 23.9721 6.26117C23.9795 6.48398 23.9829 6.68059 24.0244 6.98598V6.98532Z" fill="#32005E"/>
<path d="M34.7092 13.2891C34.7486 14.6823 35.666 16.0618 36.9087 16.4098C38.6525 16.898 40.382 17.0317 41.8271 15.5985C42.3024 15.1273 44.8645 15.3508 45.2047 15.9203C45.3507 16.1654 45.2617 16.6523 45.1028 16.938C44.1223 18.7048 42.4239 19.5299 40.4941 19.8543C37.4506 20.3668 33.6893 19.5731 31.8857 16.6248C29.8262 13.2583 30.4142 7.63607 33.8828 5.28863C36.6072 3.44449 41.605 3.30294 44.1854 5.8673C45.6474 7.31954 46.0209 9.20234 46.0453 11.1559C46.0711 13.213 46.0569 13.215 43.9606 13.2176C41.2954 13.2209 38.6301 13.2176 35.9655 13.2255C35.5458 13.2268 35.1255 13.2668 34.7099 13.2891H34.7092ZM38.4861 10.4436V10.4508C39.4178 10.4508 40.3501 10.4567 41.2818 10.4495C42.409 10.4403 42.6433 10.0621 42.1741 9.03391C41.5025 7.56332 40.1301 6.90798 38.0624 7.06985C36.5882 7.18519 35.0915 8.35563 34.75 9.65518C34.6142 10.1729 34.7717 10.4527 35.3679 10.4468C36.4075 10.437 37.4465 10.4442 38.4861 10.4442V10.4436Z" fill="#32005E"/>
<path d="M15.4282 9.73711C18.1471 10.8879 18.8866 12.9312 18.5165 15.4465C18.1674 17.8208 16.372 19.5528 13.6694 19.7449C10.287 19.9847 6.88296 19.9683 3.48702 19.9847C-0.0956578 20.0017 0.165777 20.3137 1.10015 17.0481C1.62913 15.1987 2.13095 13.333 2.82359 11.5393C3.33763 10.2083 3.17669 9.04113 2.71154 7.75404C1.93063 5.58944 1.31949 3.36848 0.61531 1.17767C0.408878 0.535437 0.410236 -0.00391069 1.27195 2.1365e-05C5.00878 0.018371 8.75035 -0.0209496 12.4811 0.152716C14.6595 0.254294 16.5615 1.07675 17.3023 3.35538C18.0547 5.66808 17.4687 7.78877 15.4282 9.73645V9.73711ZM5.27904 16.1365C7.64418 16.1365 9.61954 16.1785 11.5915 16.1241C13.3285 16.0756 14.2649 15.2669 14.2527 13.9772C14.2405 12.7196 13.0841 11.6894 11.5073 11.6271C10.2035 11.576 8.89228 11.5688 7.59189 11.6507C7.20076 11.6756 6.62085 11.9836 6.49522 12.2982C6.03415 13.4555 5.72721 14.6705 5.27904 16.1365ZM5.30484 3.93273C5.72789 5.27815 6.03822 6.44204 6.4796 7.55744C6.5998 7.86152 7.10433 8.20098 7.4459 8.21475C8.74424 8.26717 10.0616 8.29535 11.345 8.13545C12.4892 7.99258 13.0318 7.15702 13.0881 6.04949C13.1465 4.91247 12.6705 4.03431 11.4598 3.96354C9.51157 3.85016 7.55115 3.93339 5.30484 3.93339V3.93273Z" fill="#32005E"/>
<path d="M67.3228 9.73711C70.0417 10.8879 70.7812 12.9312 70.4111 15.4465C70.0621 17.8208 68.2667 19.5528 65.564 19.7449C62.1817 19.9847 58.7776 19.9683 55.3816 19.9847C51.799 20.0017 52.0604 20.3137 52.9948 17.0481C53.5238 15.1987 54.0256 13.333 54.7182 11.5393C55.2323 10.2083 55.0713 9.04113 54.6062 7.75404C53.8246 5.5901 53.2134 3.36914 52.5099 1.17833C52.3035 0.535437 52.3042 -0.00391069 53.1666 2.1365e-05C56.9034 0.018371 60.645 -0.0209496 64.3757 0.152716C66.5541 0.254294 68.4561 1.07675 69.197 3.35538C69.9494 5.66808 69.3633 7.78877 67.3228 9.73645V9.73711ZM57.1737 16.1365C59.5388 16.1365 61.5142 16.1785 63.4861 16.1241C65.2231 16.0756 66.1596 15.2669 66.1473 13.9772C66.1351 12.7196 64.9787 11.6894 63.4019 11.6271C62.0981 11.576 60.7869 11.5688 59.4865 11.6507C59.0954 11.6756 58.5155 11.9836 58.3898 12.2982C57.9288 13.4555 57.6218 14.6705 57.1737 16.1365ZM57.1995 3.93273C57.6225 5.27815 57.9328 6.44204 58.3742 7.55744C58.4944 7.86152 58.999 8.20098 59.3405 8.21475C60.6389 8.26717 61.9562 8.29535 63.2396 8.13545C64.3838 7.99258 64.9264 7.15702 64.9828 6.04949C65.0412 4.91247 64.5651 4.03431 63.3544 3.96354C61.4062 3.85016 59.4458 3.93339 57.1995 3.93339V3.93273Z" fill="#32005E"/>
<path d="M52.9716 8.73116H48.2183C47.859 8.73116 47.5677 9.01224 47.5677 9.35897V11.0249C47.5677 11.3716 47.859 11.6527 48.2183 11.6527H52.9716C53.3309 11.6527 53.6222 11.3716 53.6222 11.0249V9.35897C53.6222 9.01224 53.3309 8.73116 52.9716 8.73116Z" fill="#32005E"/>
</mask>
<g mask="url(#mask0_596_29250)">
<rect x="-16.6927" y="-7.64697" width="104.384" height="35.5878" fill="url(#paint0_linear_596_29250)"/>
</g>
<defs>
<linearGradient id="paint0_linear_596_29250" x1="-16.6927" y1="10.1469" x2="87.6914" y2="10.1469" gradientUnits="userSpaceOnUse">
<stop stop-color="#00C4FF"/>
<stop offset="0.503493" stop-color="#00EDA0"/>
<stop offset="1" stop-color="#00FF6D"/>
</linearGradient>
</defs>
</svg>
