<svg width="36" height="36" viewBox="0 0 36 36" fill="none" xmlns="http://www.w3.org/2000/svg">
<path d="M19.7124 20.7232C22.389 19.7981 24.3195 17.2432 24.3195 14.2698C24.3195 12.0012 23.2225 9.99693 21.5114 8.76352C21.6433 8.78555 21.7968 8.80757 21.9283 8.80757C22.9375 8.80757 23.771 7.99264 23.771 6.97949C23.771 5.96633 22.9375 5.1514 21.9283 5.1514C20.9192 5.1514 20.0857 5.96633 20.0857 6.97949C20.0857 7.41999 20.2392 7.83847 20.5243 8.16884C19.603 7.70632 18.5497 7.44201 17.4311 7.44201C13.6357 7.44201 10.5424 10.5035 10.5424 14.2918C10.5424 18.0141 13.548 21.0535 17.2555 21.1417C15.4566 21.9125 14.1842 23.6966 14.1842 25.7669C14.1842 28.5421 16.4436 30.7887 19.2301 30.7887C22.0161 30.7887 24.2758 28.5421 24.2758 25.7669C24.3195 23.1019 22.3012 20.9434 19.7124 20.7232ZM12.6924 14.2478C12.6924 11.6268 14.8204 9.51238 17.4528 9.51238C20.0857 9.51238 22.2134 11.6488 22.2134 14.2478C22.2134 16.8468 20.0857 19.0052 17.4528 19.0052C14.8204 19.0052 12.6924 16.8688 12.6924 14.2478ZM19.2738 28.6522C17.6504 28.6522 16.3342 27.3307 16.3342 25.7229C16.3342 24.1151 17.6504 22.7936 19.2738 22.7936C20.8971 22.7936 22.2134 24.1151 22.2134 25.7229C22.2134 27.3527 20.8971 28.6522 19.2738 28.6522Z" fill="#6F2FD3"/>
</svg>
