<svg width="29" height="32" viewBox="0 0 29 32" fill="none" xmlns="http://www.w3.org/2000/svg">
<path d="M23.5058 15.5794C27.6733 17.4206 28.8067 20.69 28.2395 24.7143C27.7045 28.5132 24.9525 31.2845 20.81 31.5918C15.6256 31.9755 10.4078 31.9493 5.2026 31.9755C-0.288868 32.0028 0.111855 32.5019 1.54405 27.277C2.35486 24.318 3.12404 21.3328 4.1857 18.4629C4.97361 16.3333 4.72694 14.4658 4.01396 12.4065C2.817 8.94311 1.88024 5.38958 0.80089 1.88428C0.484475 0.856699 0.486557 -0.00625711 1.80738 3.4184e-05C7.53512 0.0293936 13.2701 -0.0335194 18.9885 0.244346C22.3275 0.406871 25.2429 1.7228 26.3785 5.3686C27.5317 9.06893 26.6335 12.462 23.5058 15.5783V15.5794ZM7.94937 25.8185C11.5746 25.8185 14.6024 25.8856 17.625 25.7985C20.2875 25.7209 21.7228 24.427 21.7041 22.3635C21.6853 20.3513 19.9128 18.703 17.4959 18.6034C15.4975 18.5216 13.4877 18.5101 11.4945 18.6411C10.8949 18.681 10.0061 19.1738 9.81352 19.6771C9.10679 21.5288 8.63633 23.4728 7.94937 25.8185ZM7.98892 6.29238C8.63737 8.44505 9.11303 10.3073 9.78958 12.0919C9.97381 12.5784 10.7471 13.1216 11.2707 13.1436C13.2608 13.2275 15.28 13.2726 17.2472 13.0167C19.001 12.7881 19.8326 11.4512 19.919 9.67919C20.0085 7.85996 19.2789 6.4549 17.4231 6.34166C14.4369 6.16026 11.432 6.29342 7.98892 6.29342V6.29238Z" fill="white"/>
</svg>
