<svg width="148" height="40" viewBox="0 0 148 40" fill="none" xmlns="http://www.w3.org/2000/svg">
<path d="M26.52 32.6875V8.27278H29.469V10.7417C30.6833 9.03479 32.9385 7.9375 35.1647 7.9375C39.7038 7.9375 43.26 11.8695 43.26 16.8987C43.26 21.928 39.7038 25.8599 35.1647 25.8599C32.9385 25.8599 30.6833 24.7322 29.469 23.0557V32.6875H26.52ZM34.731 10.7722C31.5507 10.7722 29.2377 13.3325 29.2377 16.8987C29.2377 20.4649 31.5507 23.0253 34.731 23.0253C37.9113 23.0253 40.2243 20.4649 40.2243 16.8987C40.2243 13.3325 37.9113 10.7722 34.731 10.7722Z" fill="white"/>
<path d="M47.04 25.3446V8.12009H50.1101V11.072C50.9528 9.00261 53.0597 7.9375 54.8054 7.9375C55.287 7.9375 55.7083 7.96793 56.1598 8.08966H56.22V11.3154L56.1297 11.285C55.6181 11.1024 55.1666 11.0111 54.5646 11.0111C51.6752 11.0111 50.1402 13.9326 50.1402 16.8236V25.375H47.04V25.3446Z" fill="white"/>
<path d="M66.7365 25.9375C62.0509 25.9375 58.38 21.9885 58.38 16.9375C58.38 11.8865 62.0509 7.9375 66.7365 7.9375C69.0345 7.9375 71.3624 9.07015 72.6159 10.7539V8.27424H75.66V25.6008H72.586V23.1212C71.3325 24.8355 69.0046 25.9375 66.7365 25.9375ZM67.1543 10.7845C63.9013 10.7845 61.454 13.4171 61.454 16.9375C61.454 20.4579 63.9013 23.0906 67.1543 23.0906C70.4372 23.0906 72.8248 20.5191 72.8248 16.9375C72.8248 13.3559 70.467 10.7845 67.1543 10.7845Z" fill="white"/>
<path d="M123.371 25.3449V15.3289C123.371 12.4628 122.145 10.7734 120.083 10.7734C117.303 10.7734 115.51 13.1869 115.51 16.8976V25.375H112.46V15.3289C112.46 12.4628 111.235 10.7734 109.232 10.7734C106.482 10.7734 104.629 13.2472 104.629 16.8976V25.375H101.58V8.26936H104.629V10.6828C105.675 8.96324 107.529 7.9375 109.651 7.9375C112.072 7.9375 113.955 9.20459 114.852 11.4371C115.809 9.26492 117.931 7.9375 120.411 7.9375C124.058 7.9375 126.42 10.6527 126.42 14.8763V25.3449H123.371Z" fill="white"/>
<path d="M138.556 25.9375C133.871 25.9375 130.2 21.9885 130.2 16.9375C130.2 11.8865 133.871 7.9375 138.556 7.9375C140.854 7.9375 143.182 9.07015 144.436 10.7539V8.27424H147.48V25.6008H144.436V23.1212C143.182 24.8355 140.854 25.9375 138.556 25.9375ZM139.004 10.7845C135.751 10.7845 133.304 13.4171 133.304 16.9375C133.304 20.4579 135.751 23.0906 139.004 23.0906C142.287 23.0906 144.674 20.5191 144.674 16.9375C144.674 13.3559 142.287 10.7845 139.004 10.7845Z" fill="white"/>
<path d="M91.6604 25.866C95.2274 24.567 97.8001 20.9794 97.8001 16.8041C97.8001 13.6186 96.3382 10.8041 94.0578 9.07216C94.2337 9.10309 94.4383 9.13402 94.6135 9.13402C95.9584 9.13402 97.0691 7.98969 97.0691 6.56701C97.0691 5.14433 95.9584 4 94.6135 4C93.2687 4 92.1579 5.14433 92.1579 6.56701C92.1579 7.18557 92.3625 7.7732 92.7424 8.23711C91.5146 7.58763 90.111 7.21649 88.6203 7.21649C83.5623 7.21649 79.4401 11.5154 79.4401 16.8351C79.4401 22.0619 83.4454 26.3299 88.3863 26.4536C85.9889 27.5361 84.2932 30.0412 84.2932 32.9485C84.2932 36.8453 87.3043 40 91.0177 40C94.7305 40 97.7418 36.8453 97.7418 32.9485C97.8001 29.2062 95.1104 26.1753 91.6604 25.866ZM82.3052 16.7732C82.3052 13.0928 85.1411 10.1237 88.6491 10.1237C92.1579 10.1237 94.9934 13.1237 94.9934 16.7732C94.9934 20.4227 92.1579 23.4536 88.6491 23.4536C85.1411 23.4536 82.3052 20.4536 82.3052 16.7732ZM91.0759 37C88.9126 37 87.1585 35.1443 87.1585 32.8866C87.1585 30.6289 88.9126 28.7732 91.0759 28.7732C93.2393 28.7732 94.9934 30.6289 94.9934 32.8866C94.9934 35.1753 93.2393 37 91.0759 37Z" fill="white"/>
<path d="M2.77394 9.864C3.0726 9.34133 3.50994 8.91467 4.08594 8.584C4.66194 8.25333 5.31794 8.088 6.05394 8.088C6.84327 8.088 7.5526 8.27467 8.18194 8.648C8.81127 9.02133 9.30727 9.54933 9.66994 10.232C10.0326 10.904 10.2139 11.688 10.2139 12.584C10.2139 13.4693 10.0326 14.2587 9.66994 14.952C9.30727 15.6453 8.80594 16.184 8.16594 16.568C7.5366 16.952 6.8326 17.144 6.05394 17.144C5.2966 17.144 4.62994 16.9787 4.05394 16.648C3.4886 16.3173 3.06194 15.896 2.77394 15.384V17H1.31794V5.16H2.77394V9.864ZM8.72594 12.584C8.72594 11.9227 8.5926 11.3467 8.32594 10.856C8.05927 10.3653 7.6966 9.992 7.23794 9.736C6.78994 9.48 6.29394 9.352 5.74994 9.352C5.2166 9.352 4.7206 9.48533 4.26194 9.752C3.81394 10.008 3.45127 10.3867 3.17394 10.888C2.90727 11.3787 2.77394 11.9493 2.77394 12.6C2.77394 13.2613 2.90727 13.8427 3.17394 14.344C3.45127 14.8347 3.81394 15.2133 4.26194 15.48C4.7206 15.736 5.2166 15.864 5.74994 15.864C6.29394 15.864 6.78994 15.736 7.23794 15.48C7.6966 15.2133 8.05927 14.8347 8.32594 14.344C8.5926 13.8427 8.72594 13.256 8.72594 12.584ZM19.6824 8.232L14.4024 21.128H12.8984L14.6264 16.904L11.0904 8.232H12.7064L15.4584 15.336L18.1784 8.232H19.6824Z" fill="white"/>
</svg>
