<svg width="185" height="176" viewBox="0 0 185 176" fill="none" xmlns="http://www.w3.org/2000/svg">
<path d="M130.162 125.69C150.94 104.913 150.94 71.2251 130.162 50.4473C109.385 29.6695 75.6972 29.6695 54.9194 50.4473C34.1416 71.2251 34.1416 104.913 54.9194 125.69C75.6972 146.468 109.385 146.468 130.162 125.69Z" fill="#00BD81"/>
<path d="M86.5556 120.19L54.2432 98.5106L63.3175 84.9834L83.0361 98.225L115.011 57.2183L127.859 67.2259L86.5556 120.19Z" fill="white"/>
<path opacity="0.2" d="M152.92 10.9234C166.389 26.9317 173.826 47.1637 173.69 68.0531C173.465 100.857 163.09 146.73 111.93 168.574C27.4035 204.666 -18.7715 97.2909 7.31902 77.2512C30.7582 59.2458 85.0802 88.7131 110.81 13.7641C116.822 -3.7513 142.726 -4.21028 152.92 10.9234Z" fill="#E3E8F9"/>
<path d="M131.541 130.569C152.252 109.859 152.252 76.28 131.541 55.5693C110.83 34.8587 77.2517 34.8587 56.541 55.5693C35.8303 76.28 35.8303 109.859 56.541 130.569C77.2517 151.28 110.83 151.28 131.541 130.569Z" fill="#00BD81"/>
<path d="M88.0752 125.089L55.8672 103.479L64.9123 89.9958L84.5671 103.195L116.439 62.3203L129.245 72.2957L88.0752 125.089Z" fill="white"/>
<path d="M16.7583 20.8269C34.2496 6.44914 68.7853 1.32166 93.7458 24.4604V24.471L93.9047 24.6193C100.875 31.1253 110.092 34.7029 119.63 34.5045C129.536 34.3038 142.782 35.1589 154.638 39.6413C166.481 44.1187 176.901 52.1983 181.269 66.4452C187.64 87.233 184.521 112.041 171.434 131.884C158.359 151.709 135.317 166.602 101.78 167.545C68.3487 168.486 35.1642 141.619 16.2992 109.48C6.87552 93.4256 1.06077 76.1103 0.574184 60.3817C0.0878751 44.662 4.92058 30.5579 16.7583 20.8269Z" stroke="url(#paint0_linear_142_4614)"/>
<defs>
<linearGradient id="paint0_linear_142_4614" x1="0.0410156" y1="88.0693" x2="184.959" y2="88.0693" gradientUnits="userSpaceOnUse">
<stop stop-color="#00C4FF"/>
<stop offset="0.503493" stop-color="#00EDA0"/>
<stop offset="1" stop-color="#00FF6D"/>
</linearGradient>
</defs>
</svg>
