<svg width="29" height="30" viewBox="0 0 29 30" fill="none" xmlns="http://www.w3.org/2000/svg">
<path d="M21.4 20.8333C21.4 22.1719 22.4948 23.2667 23.8333 23.2667C25.1719 23.2667 26.2667 22.1719 26.2667 20.8333C26.2667 19.4948 25.1719 18.4 23.8333 18.4C22.4948 18.4 21.4 19.4948 21.4 20.8333ZM22.7667 20.8333C22.7667 20.5061 22.8753 20.2411 23.0582 20.0582C23.2411 19.8753 23.5061 19.7667 23.8333 19.7667C24.1606 19.7667 24.4256 19.8753 24.6085 20.0582C24.7913 20.2411 24.9 20.5061 24.9 20.8333C24.9 21.1606 24.7913 21.4256 24.6085 21.6085C24.4256 21.7913 24.1606 21.9 23.8333 21.9C23.5061 21.9 23.2411 21.7913 23.0582 21.6085C22.8753 21.4256 22.7667 21.1606 22.7667 20.8333Z" fill="black" stroke="black" stroke-width="0.2"/>
<path d="M27.2334 28.4168C27.2334 28.6146 27.2998 28.7871 27.4231 28.9105C27.5465 29.0338 27.719 29.1002 27.9167 29.1002C28.1145 29.1002 28.287 29.0338 28.4104 28.9105C28.5337 28.7871 28.6001 28.6146 28.6001 28.4168V27.2502C28.6001 25.5616 27.272 24.2335 25.5834 24.2335H22.0834C20.3949 24.2335 19.0667 25.5616 19.0667 27.2502V28.4168C19.0667 28.6146 19.1331 28.7871 19.2565 28.9105C19.3798 29.0338 19.5524 29.1002 19.7501 29.1002C19.9478 29.1002 20.1203 29.0338 20.2437 28.9105C20.3671 28.7871 20.4334 28.6146 20.4334 28.4168V27.2502C20.4334 26.3721 21.2053 25.6002 22.0834 25.6002H25.5834C26.4615 25.6002 27.2334 26.3721 27.2334 27.2502V28.4168Z" fill="black" stroke="black" stroke-width="0.2"/>
<path d="M2.73325 20.8333C2.73325 22.1719 3.82802 23.2667 5.16659 23.2667C6.50515 23.2667 7.59992 22.1719 7.59992 20.8333C7.59992 19.4948 6.50515 18.4 5.16659 18.4C3.82802 18.4 2.73325 19.4948 2.73325 20.8333ZM4.09992 20.8333C4.09992 20.5061 4.20857 20.2411 4.39146 20.0582C4.57435 19.8753 4.83931 19.7667 5.16659 19.7667C5.49386 19.7667 5.75882 19.8753 5.94171 20.0582C6.1246 20.2411 6.23325 20.5061 6.23325 20.8333C6.23325 21.1606 6.1246 21.4256 5.94171 21.6085C5.75882 21.7913 5.49386 21.9 5.16659 21.9C4.83931 21.9 4.57435 21.7913 4.39146 21.6085C4.20857 21.4256 4.09992 21.1606 4.09992 20.8333Z" fill="black" stroke="black" stroke-width="0.2"/>
<path d="M8.56667 28.4168C8.56667 28.6146 8.63301 28.7871 8.75637 28.9105C8.87973 29.0338 9.05228 29.1002 9.25 29.1002C9.44773 29.1002 9.62027 29.0338 9.74363 28.9105C9.86699 28.7871 9.93333 28.6146 9.93333 28.4168V27.2502C9.93333 25.5616 8.60523 24.2335 6.91667 24.2335H3.41667C1.7281 24.2335 0.4 25.5616 0.4 27.2502V28.4168C0.4 28.6146 0.466345 28.7871 0.589706 28.9105C0.713067 29.0338 0.885609 29.1002 1.08333 29.1002C1.28106 29.1002 1.4536 29.0338 1.57696 28.9105C1.70032 28.7871 1.76667 28.6146 1.76667 28.4168V27.2502C1.76667 26.3721 2.53856 25.6002 3.41667 25.6002H6.91667C7.79477 25.6002 8.56667 26.3721 8.56667 27.2502V28.4168Z" fill="black" stroke="black" stroke-width="0.2"/>
<path d="M10.4166 23.2668H14.4999C14.6976 23.2668 14.8702 23.2005 14.9935 23.0771C15.1169 22.9538 15.1833 22.7812 15.1833 22.5835V14.4168C15.1833 14.2191 15.1169 14.0466 14.9935 13.9232C14.8702 13.7998 14.6976 13.7335 14.4999 13.7335C14.3022 13.7335 14.1297 13.7998 14.0063 13.9232C13.8829 14.0466 13.8166 14.2191 13.8166 14.4168V21.9002H10.4166C10.2189 21.9002 10.0463 21.9665 9.92296 22.0899C9.7996 22.2132 9.73325 22.3858 9.73325 22.5835C9.73325 22.7812 9.7996 22.9538 9.92296 23.0771C10.0463 23.2005 10.2189 23.2668 10.4166 23.2668Z" fill="black" stroke="black" stroke-width="0.2"/>
<path d="M14.5001 23.2667H18.5834C18.7811 23.2667 18.9537 23.2003 19.077 23.077C19.2004 22.9536 19.2667 22.7811 19.2667 22.5833C19.2667 22.3856 19.2004 22.2131 19.077 22.0897C18.9537 21.9663 18.7811 21.9 18.5834 21.9H14.5001C14.3024 21.9 14.1298 21.9663 14.0065 22.0897C13.8831 22.2131 13.8167 22.3856 13.8167 22.5833C13.8167 22.7811 13.8831 22.9536 14.0065 23.077C14.1298 23.2003 14.3024 23.2667 14.5001 23.2667Z" fill="black" stroke="black" stroke-width="0.2"/>
<path d="M13.8167 12.0835C13.8167 12.2812 13.8831 12.4538 14.0065 12.5771C14.1298 12.7005 14.3024 12.7668 14.5001 12.7668C14.6978 12.7668 14.8703 12.7005 14.9937 12.5771C15.1171 12.4538 15.1834 12.2812 15.1834 12.0835V10.9168C15.1834 10.7191 15.1171 10.5466 14.9937 10.4232C14.8703 10.2998 14.6978 10.2335 14.5001 10.2335C14.3024 10.2335 14.1298 10.2998 14.0065 10.4232C13.8831 10.5466 13.8167 10.7191 13.8167 10.9168V12.0835Z" fill="black" stroke="black" stroke-width="0.2"/>
<path d="M12.6334 11.6H14.7334C15.9315 11.6 17.05 10.8764 17.05 9.63333C17.05 8.41144 16.0719 7.43333 14.85 7.43333H14.2667C13.9951 7.43333 13.7895 7.35224 13.652 7.21471C13.5145 7.07717 13.4334 6.87162 13.4334 6.6C13.4334 6.3283 13.5146 6.12053 13.6407 5.98185C13.7663 5.84375 13.9428 5.76667 14.15 5.76667H16.25C16.4478 5.76667 16.6203 5.70032 16.7437 5.57696C16.867 5.4536 16.9334 5.28106 16.9334 5.08333C16.9334 4.69312 16.6692 4.4 16.3667 4.4H14.2667C13.0686 4.4 11.95 5.12365 11.95 6.36667C11.95 7.58856 12.9282 8.56667 14.15 8.56667H14.7334C15.005 8.56667 15.2106 8.64776 15.3481 8.78529C15.4856 8.92283 15.5667 9.12838 15.5667 9.4C15.5667 9.6717 15.4855 9.87947 15.3594 10.0181C15.2338 10.1562 15.0573 10.2333 14.85 10.2333H12.75C12.5523 10.2333 12.3798 10.2997 12.2564 10.423C12.1331 10.5464 12.0667 10.7189 12.0667 10.9167C12.0667 11.3069 12.3309 11.6 12.6334 11.6Z" fill="black" stroke="black" stroke-width="0.2"/>
<path d="M13.8167 5.0835C13.8167 5.28122 13.8831 5.45376 14.0065 5.57712C14.1298 5.70048 14.3024 5.76683 14.5001 5.76683C14.6978 5.76683 14.8703 5.70048 14.9937 5.57712C15.1171 5.45376 15.1834 5.28122 15.1834 5.0835V3.91683C15.1834 3.7191 15.1171 3.54656 14.9937 3.4232C14.8703 3.29984 14.6978 3.2335 14.5001 3.2335C14.3024 3.2335 14.1298 3.29984 14.0065 3.4232C13.8831 3.54656 13.8167 3.7191 13.8167 3.91683V5.0835Z" fill="black" stroke="black" stroke-width="0.2"/>
<path d="M7.4 8C7.4 11.9052 10.5948 15.1 14.5 15.1C18.4052 15.1 21.6 11.9052 21.6 8C21.6 4.09477 18.4052 0.9 14.5 0.9C10.5948 0.9 7.4 4.09477 7.4 8ZM8.76667 8C8.76667 4.78856 11.2886 2.26667 14.5 2.26667C17.7114 2.26667 20.2333 4.78856 20.2333 8C20.2333 11.2114 17.7114 13.7333 14.5 13.7333C11.2886 13.7333 8.76667 11.2114 8.76667 8Z" fill="black" stroke="black" stroke-width="0.2"/>
</svg>
