<svg width="40" height="40" viewBox="0 0 40 40" fill="none" xmlns="http://www.w3.org/2000/svg">
<path d="M0.5 20C0.5 9.23045 9.23045 0.5 20 0.5C30.7696 0.5 39.5 9.23045 39.5 20C39.5 30.7696 30.7696 39.5 20 39.5C9.23045 39.5 0.5 30.7696 0.5 20Z" fill="white"/>
<path d="M0.5 20C0.5 9.23045 9.23045 0.5 20 0.5C30.7696 0.5 39.5 9.23045 39.5 20C39.5 30.7696 30.7696 39.5 20 39.5C9.23045 39.5 0.5 30.7696 0.5 20Z" stroke="#CFD1D3"/>
<path d="M15.8911 24.1911L17.3072 15.8811H19.5723L18.1551 24.1911H15.8911Z" fill="#0E4595"/>
<path d="M26.3381 16.0601C25.8894 15.8918 25.1862 15.7111 24.3081 15.7111C22.0699 15.7111 20.4934 16.8382 20.48 18.4535C20.4674 19.6476 21.6055 20.3137 22.4647 20.7112C23.3463 21.1186 23.6427 21.3783 23.6385 21.742C23.6328 22.2991 22.9344 22.5535 22.2833 22.5535C21.3768 22.5535 20.8952 22.4275 20.1513 22.1173L19.8594 21.9852L19.5415 23.8455C20.0706 24.0775 21.0488 24.2785 22.0646 24.2889C24.4456 24.2889 25.9913 23.1747 26.0089 21.4497C26.0173 20.5043 25.4139 19.785 24.1071 19.1919C23.3154 18.8075 22.8305 18.5509 22.8357 18.1617C22.8357 17.8163 23.2461 17.4469 24.1329 17.4469C24.8735 17.4354 25.4101 17.5969 25.8282 17.7653L26.0311 17.8612L26.3381 16.0601Z" fill="#0E4595"/>
<path d="M32.1664 15.8807H30.4162C29.874 15.8807 29.4682 16.0287 29.2301 16.5699L25.8662 24.1854H28.2447C28.2447 24.1854 28.6335 23.1615 28.7215 22.9366C28.9814 22.9366 31.292 22.9402 31.6223 22.9402C31.6901 23.2311 31.8979 24.1854 31.8979 24.1854H33.9997L32.1664 15.8807ZM29.3894 21.2467C29.5768 20.7679 30.2919 18.9237 30.2919 18.9237C30.2786 18.9458 30.4779 18.4426 30.5922 18.1306L30.7453 18.847C30.7453 18.847 31.179 20.8306 31.2697 21.2466H29.3894V21.2467Z" fill="#0E4595"/>
<path d="M6.02894 15.8811L6 16.0539C6.89539 16.2707 7.6951 16.5844 8.39525 16.9746L10.4051 24.1778L12.8015 24.1751L16.3675 15.8811H13.968L11.7505 21.5479L11.5143 20.3962C11.5032 20.3606 11.4912 20.325 11.4789 20.2893L10.708 16.5826C10.5709 16.0564 10.1733 15.8994 9.68134 15.8811H6.02894Z" fill="#0E4595"/>
</svg>
