<svg width="40" height="40" viewBox="0 0 40 40" fill="none" xmlns="http://www.w3.org/2000/svg">
<path d="M0.5 20C0.5 9.23045 9.23045 0.5 20 0.5C30.7696 0.5 39.5 9.23045 39.5 20C39.5 30.7696 30.7696 39.5 20 39.5C9.23045 39.5 0.5 30.7696 0.5 20Z" fill="white"/>
<path d="M0.5 20C0.5 9.23045 9.23045 0.5 20 0.5C30.7696 0.5 39.5 9.23045 39.5 20C39.5 30.7696 30.7696 39.5 20 39.5C9.23045 39.5 0.5 30.7696 0.5 20Z" stroke="#CFD1D3"/>
<path fill-rule="evenodd" clip-rule="evenodd" d="M20.0002 25.4738C18.7291 26.5453 17.0804 27.1921 15.2787 27.1921C11.2588 27.1921 8 23.9721 8 20C8 16.0279 11.2588 12.8079 15.2787 12.8079C17.0804 12.8079 18.7291 13.4547 20.0002 14.5262C21.2712 13.4547 22.92 12.8079 24.7216 12.8079C28.7415 12.8079 32.0003 16.0279 32.0003 20C32.0003 23.9721 28.7415 27.1921 24.7216 27.1921C22.92 27.1921 21.2712 26.5453 20.0002 25.4738Z" fill="#ED0006"/>
<path fill-rule="evenodd" clip-rule="evenodd" d="M19.9995 25.4743C21.5647 24.1551 22.5572 22.1921 22.5572 20C22.5572 17.8079 21.5647 15.8449 19.9995 14.5257C21.2705 13.4546 22.919 12.8079 24.7205 12.8079C28.7404 12.8079 31.9992 16.0279 31.9992 20C31.9992 23.9721 28.7404 27.1921 24.7205 27.1921C22.919 27.1921 21.2705 26.5454 19.9995 25.4743Z" fill="#F9A000"/>
<path fill-rule="evenodd" clip-rule="evenodd" d="M19.9996 25.474C21.5645 24.1548 22.5568 22.192 22.5568 20.0001C22.5568 17.8083 21.5645 15.8454 19.9996 14.5263C18.4347 15.8454 17.4424 17.8083 17.4424 20.0001C17.4424 22.192 18.4347 24.1548 19.9996 25.474Z" fill="#FF5E00"/>
</svg>
