<svg width="185" height="160" viewBox="0 0 185 160" fill="none" xmlns="http://www.w3.org/2000/svg">
<path d="M16.7173 12.7576C34.2086 -1.62019 68.7443 -6.74767 93.7048 16.391V16.4017L93.8637 16.5499C100.834 23.056 110.051 26.6335 119.589 26.4352C129.495 26.2345 142.741 27.0896 154.597 31.5719C166.44 36.0494 176.86 44.1289 181.228 58.3759C187.599 79.1636 184.48 103.972 171.393 123.814C158.318 143.64 135.276 158.533 101.739 159.476C68.3077 160.416 35.1232 133.549 16.2582 101.411C6.83451 85.3563 1.01975 68.041 0.533168 52.3123C0.0468595 36.5927 4.87956 22.4885 16.7173 12.7576Z" stroke="url(#paint0_linear_141_4223)"/>
<g clip-path="url(#clip0_141_4223)">
<path d="M167.632 34.0984H17.2861C11.7229 34.0984 7.21313 38.6055 7.21313 44.1652V128.95C7.21313 134.509 11.7229 139.016 17.2861 139.016H167.632C173.195 139.016 177.705 134.509 177.705 128.95V44.1652C177.705 38.6055 173.195 34.0984 167.632 34.0984Z" fill="#5FEDBF"/>
<path d="M44.7727 127.739H25.9572C23.4152 127.739 21.3364 125.662 21.3364 123.122C21.3364 120.581 23.4152 118.504 25.9572 118.504H44.7727C47.3147 118.504 49.3934 120.581 49.3934 123.122C49.3934 125.662 47.3147 127.739 44.7727 127.739Z" fill="white"/>
<path d="M82.1782 127.739H63.3627C60.8207 127.739 58.7419 125.662 58.7419 123.122C58.7419 120.581 60.8207 118.504 63.3627 118.504H82.1782C84.7202 118.504 86.7989 120.581 86.7989 123.122C86.7989 125.662 84.7202 127.739 82.1782 127.739Z" fill="white"/>
<path d="M119.643 127.739H100.828C98.2855 127.739 96.2068 125.662 96.2068 123.122C96.2068 120.581 98.2855 118.504 100.828 118.504H119.643C122.185 118.504 124.264 120.581 124.264 123.122C124.264 125.662 122.185 127.739 119.643 127.739Z" fill="white"/>
<path d="M157.089 127.739H138.274C135.732 127.739 133.653 125.662 133.653 123.122C133.653 120.581 135.732 118.504 138.274 118.504H157.089C159.631 118.504 161.71 120.581 161.71 123.122C161.71 125.662 159.631 127.739 157.089 127.739Z" fill="white"/>
</g>
<g opacity="0.8">
<path fill-rule="evenodd" clip-rule="evenodd" d="M115.18 78.7507C113.517 84.6843 111.125 89.9752 108.077 94.4744C104.224 100.163 99.3119 104.59 93.479 107.631L92.4308 108.178L91.3846 107.633C86.1535 104.909 81.6638 101.07 78.0118 96.2106C77.7798 95.901 77.5497 95.5874 77.3235 95.268C77.1387 95.0094 76.9577 94.7487 76.7788 94.4842C76.7434 94.4332 76.708 94.3803 76.6745 94.3294C75.5044 92.5873 74.4307 90.7277 73.4592 88.7583C73.2409 88.3174 73.0285 87.8706 72.822 87.4179C72.6686 87.0848 72.5191 86.7477 72.3716 86.4087C72.1868 85.9855 72.0078 85.5583 71.8348 85.1272C71.6499 84.6725 71.4709 84.214 71.2979 83.7496C70.6941 82.1447 70.1514 80.481 69.6676 78.7644C66.8475 68.7274 67.0697 60.3717 67.0796 60.0209L67.1504 57.7517L69.4277 57.8399C69.4277 57.8399 70.0255 57.8634 70.7649 57.8634C71.9331 57.8634 72.5486 57.8085 72.8456 57.7693C75.4022 57.0698 76.8653 55.1063 77.1957 51.9298L77.4041 49.9114L107.428 49.9036L107.638 51.9239C107.969 55.0984 109.432 57.0619 111.991 57.7615C112.287 57.8027 112.903 57.8556 114.071 57.8556C114.811 57.8556 115.403 57.8321 115.41 57.8321L117.686 57.7439L117.757 60.0111C117.768 60.3619 117.995 68.7176 115.178 78.7507H115.18Z" fill="#00B379"/>
</g>
<path d="M101.273 69.8657H100.405V64.7099C100.405 60.8213 97.21 57.6379 93.3075 57.6379H91.2717C87.3692 57.6379 84.1745 60.8213 84.1745 64.7099V69.8657H83.306C81.7749 69.8657 80.5229 71.1132 80.5229 72.6388V85.8022C80.5229 87.3278 81.7749 88.5753 83.306 88.5753H101.27C102.802 88.5753 104.053 87.3278 104.053 85.8022V72.6388C104.053 71.1132 102.802 69.8657 101.27 69.8657H101.273ZM86.8025 64.9066C86.8025 63.6956 87.279 62.5549 88.1475 61.6895C89.0159 60.8241 90.1607 60.3493 91.376 60.3493H93.2117C94.427 60.3493 95.5718 60.8241 96.4402 61.6895C97.3087 62.5549 97.7852 63.6956 97.7852 64.9066V69.8629H86.8053V64.9066H86.8025Z" fill="white"/>
<defs>
<linearGradient id="paint0_linear_141_4223" x1="0" y1="80" x2="184.918" y2="80" gradientUnits="userSpaceOnUse">
<stop stop-color="#00C4FF"/>
<stop offset="0.503493" stop-color="#00EDA0"/>
<stop offset="1" stop-color="#00FF6D"/>
</linearGradient>
<clipPath id="clip0_141_4223">
<rect width="170.492" height="104.918" fill="white" transform="translate(7.21313 34.0984)"/>
</clipPath>
</defs>
</svg>
