<svg width="185" height="160" viewBox="0 0 185 160" fill="none" xmlns="http://www.w3.org/2000/svg">
<path opacity="0.8" d="M177.537 111.993H7.23315V34.9139L177.683 34.8931L177.537 111.993Z" fill="#00B379"/>
<path d="M177.705 135.388H7.21313V34.8722L92.5216 89.6212L177.705 34.8722V135.388Z" fill="#5FEDBF"/>
<path d="M161.498 119.745L115.249 119.972C112.574 119.984 110.554 117.856 110.74 115.215C110.927 112.573 113.248 110.418 115.927 110.406L162.228 110.178C164.908 110.166 166.914 112.297 166.71 114.939C166.507 117.582 164.173 119.73 161.498 119.745Z" fill="white"/>
<path d="M16.7173 12.7576C34.2086 -1.62019 68.7443 -6.74767 93.7048 16.391V16.4017L93.8637 16.5499C100.834 23.056 110.051 26.6335 119.589 26.4352C129.495 26.2345 142.741 27.0896 154.597 31.5719C166.44 36.0494 176.86 44.1289 181.228 58.3759C187.599 79.1636 184.48 103.972 171.393 123.814C158.318 143.64 135.276 158.533 101.739 159.476C68.3077 160.416 35.1232 133.549 16.2582 101.411C6.83451 85.3563 1.01975 68.041 0.533168 52.3123C0.0468595 36.5927 4.87956 22.4885 16.7173 12.7576Z" stroke="url(#paint0_linear_141_4197)"/>
<path d="M114.201 50.2444L71.0145 50.2622C57.2124 50.2678 45.9176 38.9713 45.912 25.1555C45.9063 11.3398 57.1917 0.0339251 70.9938 0.0282415L114.18 0.0104579C127.983 0.00477431 139.277 11.3013 139.283 25.1171C139.289 38.9329 128.003 50.2387 114.201 50.2444Z" fill="#5FEDBF"/>
<path d="M84.2504 50.0484L90.7574 60.5566C91.7558 62.1655 94.1171 62.064 94.9777 60.3753L100.973 48.5687L84.2504 50.0412L84.2504 50.0484Z" fill="#5FEDBF"/>
<path d="M92.5329 41.6212L101.961 41.6173C103.004 41.6169 103.846 40.7708 103.845 39.7316C103.845 38.6924 102.999 37.847 101.96 37.8474L92.5313 37.8513C85.2424 37.8543 79.3307 31.9474 79.3277 24.6585C79.3247 17.3695 85.2315 11.4578 92.5205 11.4548L96.2904 11.4533C101.494 11.4583 105.713 15.6708 105.723 20.8777L105.726 28.4175C105.726 29.4603 104.881 30.3028 103.842 30.3032C102.802 30.3037 101.956 29.4583 101.956 28.4191L101.953 20.8793C101.951 17.7544 99.4168 15.2255 96.2955 15.2267L92.5256 15.2283C87.3187 15.2161 83.0882 19.4249 83.0761 24.6319C83.0639 29.8388 87.2727 34.0692 92.4796 34.0814C94.9379 34.0876 97.3027 33.1334 99.0651 31.4197C100.718 34.0637 104.198 34.8686 106.842 33.2154C108.497 32.1827 109.5 30.3654 109.496 28.416L109.493 20.8762C109.482 13.5908 103.574 7.68752 96.2888 7.68335L92.5189 7.68491C83.1479 7.68877 75.5539 15.289 75.5578 24.66C75.5616 34.031 83.1619 41.6251 92.5329 41.6212ZM92.5282 30.3115C89.4034 30.3128 86.8723 27.7802 86.8711 24.659C86.8698 21.5377 89.4023 19.0031 92.5236 19.0018L96.2935 19.0002C97.3363 18.9998 98.1788 19.8452 98.1792 20.8844L98.1808 24.6543C98.1821 27.7792 95.6495 30.3102 92.5282 30.3115Z" fill="white"/>
<defs>
<linearGradient id="paint0_linear_141_4197" x1="0" y1="80" x2="184.918" y2="80" gradientUnits="userSpaceOnUse">
<stop stop-color="#00C4FF"/>
<stop offset="0.503493" stop-color="#00EDA0"/>
<stop offset="1" stop-color="#00FF6D"/>
</linearGradient>
</defs>
</svg>
