<svg width="185" height="160" viewBox="0 0 185 160" fill="none" xmlns="http://www.w3.org/2000/svg">
<path d="M16.7173 12.7576C34.2086 -1.62019 68.7443 -6.74767 93.7048 16.391V16.4017L93.8637 16.5499C100.834 23.056 110.051 26.6335 119.589 26.4352C129.495 26.2345 142.741 27.0896 154.597 31.5719C166.44 36.0494 176.86 44.1289 181.228 58.3759C187.599 79.1636 184.48 103.972 171.393 123.814C158.318 143.64 135.276 158.533 101.739 159.476C68.3077 160.416 35.1232 133.549 16.2582 101.411C6.83451 85.3563 1.01975 68.041 0.533168 52.3123C0.0468595 36.5927 4.87956 22.4885 16.7173 12.7576Z" stroke="url(#paint0_linear_141_4253)"/>
<g clip-path="url(#clip0_141_4253)">
<path d="M167.948 34.0984H17.306C11.7318 34.0984 7.21313 38.6055 7.21313 44.1652V128.95C7.21313 134.509 11.7318 139.016 17.306 139.016H167.948C173.523 139.016 178.041 134.509 178.041 128.95V44.1652C178.041 38.6055 173.523 34.0984 167.948 34.0984Z" fill="#5FEDBF"/>
<path opacity="0.8" d="M50.4855 48.8945H28.633C24.6187 48.8945 21.3645 52.9777 21.3645 58.0145V68.0217C21.3645 73.0585 24.6187 77.1417 28.633 77.1417H50.4855C54.4997 77.1417 57.7539 73.0585 57.7539 68.0217V58.0145C57.7539 52.9777 54.4997 48.8945 50.4855 48.8945Z" fill="#00B379"/>
<path d="M65.9498 127.253H23.6861C22.4126 127.253 21.3652 126.208 21.3652 124.938C21.3652 123.668 22.4126 122.623 23.6861 122.623H65.9379C67.2114 122.623 68.2587 123.668 68.2587 124.938C68.2587 126.208 67.2114 127.253 65.9379 127.253H65.9498Z" fill="white"/>
<path d="M159.339 127.253H117.075C115.802 127.253 114.754 126.208 114.754 124.938C114.754 123.668 115.802 122.623 117.075 122.623H159.327C160.6 122.623 161.648 123.668 161.648 124.938C161.648 126.208 160.6 127.253 159.327 127.253H159.339Z" fill="white"/>
<path d="M159.606 53.5243H117.354C116.081 53.5243 115.033 52.4796 115.033 51.2094C115.033 49.9392 116.081 48.8945 117.354 48.8945H159.606C160.88 48.8945 161.927 49.9392 161.927 51.2094C161.927 52.4796 160.88 53.5243 159.606 53.5243Z" fill="white"/>
<path opacity="0.8" d="M44.8477 104.358H25.9951C23.4481 104.358 21.3652 102.28 21.3652 99.7397C21.3652 97.1993 23.4481 95.1218 25.9951 95.1218H44.8477C47.3947 95.1218 49.4775 97.1993 49.4775 99.7397C49.4775 102.28 47.3947 104.358 44.8477 104.358Z" fill="#00B379"/>
<path opacity="0.8" d="M82.3272 104.318H63.4746C60.9276 104.318 58.8447 102.24 58.8447 99.6999C58.8447 97.1595 60.9276 95.082 63.4746 95.082H82.3272C84.8742 95.082 86.957 97.1595 86.957 99.6999C86.957 102.24 84.8742 104.318 82.3272 104.318Z" fill="#00B379"/>
<path opacity="0.8" d="M119.866 104.318H101.013C98.4659 104.318 96.3831 102.24 96.3831 99.6999C96.3831 97.1595 98.4659 95.082 101.013 95.082H119.866C122.413 95.082 124.495 97.1595 124.495 99.6999C124.495 102.24 122.413 104.318 119.866 104.318Z" fill="#00B379"/>
<path opacity="0.8" d="M157.384 104.318H138.531C135.984 104.318 133.901 102.24 133.901 99.6999C133.901 97.1595 135.984 95.082 138.531 95.082H157.384C159.931 95.082 162.013 97.1595 162.013 99.6999C162.013 102.24 159.931 104.318 157.384 104.318Z" fill="#00B379"/>
</g>
<defs>
<linearGradient id="paint0_linear_141_4253" x1="0" y1="80" x2="184.918" y2="80" gradientUnits="userSpaceOnUse">
<stop stop-color="#00C4FF"/>
<stop offset="0.503493" stop-color="#00EDA0"/>
<stop offset="1" stop-color="#00FF6D"/>
</linearGradient>
<clipPath id="clip0_141_4253">
<rect width="170.828" height="104.918" fill="white" transform="translate(7.21313 34.0984)"/>
</clipPath>
</defs>
</svg>
