<svg width="176" height="162" viewBox="0 0 176 162" fill="none" xmlns="http://www.w3.org/2000/svg">
<path d="M139.172 5.07045C123.319 -0.83284 105.512 0.172524 89.2883 4.96734C73.0646 9.76215 58.1398 18.1144 43.6451 26.8361C32.4107 33.5987 21.1332 40.7909 12.7117 50.836C4.29014 60.8896 -0.974401 74.3632 1.70088 87.1923C4.72885 101.697 16.8407 112.283 28.2472 121.753C42.4666 133.559 56.9011 145.495 73.7097 153.194C90.5184 160.893 110.26 163.969 127.559 157.456C147.465 149.955 161.151 130.835 167.456 110.539C178.785 74.0195 182.717 21.2852 139.181 5.07045H139.172Z" stroke="url(#paint0_linear_141_4119)" stroke-width="2" stroke-miterlimit="10"/>
<g clip-path="url(#clip0_141_4119)">
<path d="M164.886 30.2063H19.0263C13.6292 30.2063 9.25391 34.5703 9.25391 39.9536V122.046C9.25391 127.43 13.6292 131.794 19.0263 131.794H164.886C170.284 131.794 174.659 127.43 174.659 122.046V39.9536C174.659 34.5703 170.284 30.2063 164.886 30.2063Z" fill="#5FEDBF"/>
<path opacity="0.8" d="M134.042 94.6752C147.825 94.6752 158.999 83.5233 158.999 69.7668C158.999 56.0102 147.825 44.8584 134.042 44.8584C120.258 44.8584 109.084 56.0102 109.084 69.7668C109.084 83.5233 120.258 94.6752 134.042 94.6752Z" fill="#00B379"/>
<path d="M65.7865 49.0156H24.8761C23.643 49.0156 22.6289 48.0041 22.6289 46.7742C22.6289 45.5443 23.643 44.5328 24.8761 44.5328H65.7865C67.0196 44.5328 68.0337 45.5443 68.0337 46.7742C68.0337 48.0041 67.0196 49.0156 65.7865 49.0156Z" fill="white"/>
<path d="M65.7865 71.5898H24.8761C23.643 71.5898 22.6289 70.5783 22.6289 69.3484C22.6289 68.1185 23.643 67.107 24.8761 67.107H65.7865C67.0196 67.107 68.0337 68.1185 68.0337 69.3484C68.0337 70.5783 67.0196 71.5898 65.7865 71.5898Z" fill="white"/>
<path d="M65.7865 94.0562H24.8761C23.643 94.0562 22.6289 93.0447 22.6289 91.8148C22.6289 90.5849 23.643 89.5734 24.8761 89.5734H65.7865C67.0196 89.5734 68.0337 90.5849 68.0337 91.8148C68.0337 93.0447 67.0196 94.0562 65.7865 94.0562Z" fill="white"/>
<path opacity="0.8" d="M45.6928 120.875H27.4387C24.9725 120.875 22.9558 118.863 22.9558 116.403C22.9558 113.944 24.9725 111.932 27.4387 111.932H45.6928C48.1589 111.932 50.1757 113.944 50.1757 116.403C50.1757 118.863 48.1589 120.875 45.6928 120.875Z" fill="#00B379"/>
<path opacity="0.8" d="M81.9823 120.875H63.7282C61.2621 120.875 59.2454 118.863 59.2454 116.403C59.2454 113.944 61.2621 111.932 63.7282 111.932H81.9823C84.4485 111.932 86.4652 113.944 86.4652 116.403C86.4652 118.863 84.4485 120.875 81.9823 120.875Z" fill="#00B379"/>
<path opacity="0.8" d="M118.329 120.875H100.075C97.609 120.875 95.5923 118.863 95.5923 116.403C95.5923 113.944 97.609 111.932 100.075 111.932H118.329C120.795 111.932 122.812 113.944 122.812 116.403C122.812 118.863 120.795 120.875 118.329 120.875Z" fill="#00B379"/>
<path opacity="0.8" d="M154.658 120.875H136.404C133.938 120.875 131.921 118.863 131.921 116.403C131.921 113.944 133.938 111.932 136.404 111.932H154.658C157.125 111.932 159.141 113.944 159.141 116.403C159.141 118.863 157.125 120.875 154.658 120.875Z" fill="#00B379"/>
</g>
<defs>
<linearGradient id="paint0_linear_141_4119" x1="1" y1="81" x2="174.968" y2="81" gradientUnits="userSpaceOnUse">
<stop stop-color="#00C4FF"/>
<stop offset="0.503493" stop-color="#00EDA0"/>
<stop offset="1" stop-color="#00FF6D"/>
</linearGradient>
<clipPath id="clip0_141_4119">
<rect width="165.405" height="101.587" fill="white" transform="translate(9.25391 30.2063)"/>
</clipPath>
</defs>
</svg>
