<svg width="160" height="172" viewBox="0 0 160 172" fill="none" xmlns="http://www.w3.org/2000/svg">
<path d="M14.5074 32.0834C29.6147 19.6653 59.4436 15.2332 81.0106 35.2046V35.2137L81.1694 35.362C87.2129 41.0031 95.2053 44.1053 103.475 43.9333C112.043 43.7597 123.494 44.4995 133.741 48.3735C143.975 52.2426 152.972 59.2206 156.743 71.5223C162.25 89.4897 159.553 110.934 148.241 128.086C136.941 145.221 117.024 158.096 88.0272 158.912C59.1366 159.725 30.4426 136.502 14.1255 108.704C5.97573 94.8201 0.949246 79.849 0.528666 66.254C0.108362 52.6679 4.2848 40.4867 14.5074 32.0834Z" stroke="url(#paint0_linear_141_4174)"/>
<path opacity="0.8" d="M113.797 171.353H50.5923C44.2141 171.353 38.9951 166.129 38.9951 159.744V11.6087C38.9951 5.22408 44.2141 0 50.5923 0H113.794C120.172 0 125.391 5.22408 125.391 11.6087V159.744C125.391 166.129 120.172 171.353 113.794 171.353H113.797Z" fill="#008056"/>
<path opacity="0.8" d="M109.412 171.353H46.2071C39.8288 171.353 34.6099 166.129 34.6099 159.744V11.6087C34.6099 5.22408 39.8288 0 46.2071 0H109.408C115.787 0 121.006 5.22408 121.006 11.6087V159.744C121.006 166.129 115.787 171.353 109.408 171.353H109.412Z" fill="#00B379"/>
<path d="M108.535 4.69171H46.3136C42.3599 4.69171 39.1548 7.89999 39.1548 11.8576V158.013C39.1548 161.971 42.3599 165.179 46.3136 165.179H108.535C112.489 165.179 115.694 161.971 115.694 158.013V11.8576C115.694 7.89999 112.489 4.69171 108.535 4.69171Z" fill="#5FEDBF"/>
<path opacity="0.7" d="M103.488 87.7081C104.406 72.8926 93.1522 60.1371 78.3513 59.218C63.5503 58.2989 50.8074 69.5641 49.8892 84.3797C48.9709 99.1952 60.2251 111.951 75.0261 112.87C89.827 113.789 102.57 102.524 103.488 87.7081Z" fill="#00B379"/>
<path d="M73.6288 75.9249L69.903 72.1833C69.1322 71.4056 68.0188 71.2586 67.4192 71.8587L62.9104 76.3597C62.213 77.162 62.3598 78.4663 62.6657 79.9544C63.6812 84.9025 77.3423 98.8954 82.8116 100.286C84.2799 100.659 85.9867 100.506 86.519 100.059L91.0278 95.5579C91.6273 94.9639 91.4805 93.8494 90.7097 93.0717L86.9839 89.33C86.0295 88.3747 84.6592 88.191 83.925 88.9258L81.8756 90.9712C81.4779 91.3692 80.7927 91.3754 80.1871 90.9957C78.4741 89.9118 76.9079 88.7237 75.5131 87.4132C74.2038 86.0109 73.017 84.4432 71.9403 82.7224C71.561 82.1161 71.5732 81.4303 71.9709 81.0322L74.0203 78.9869C74.7544 78.252 74.5832 76.8803 73.6288 75.9249Z" fill="white"/>
<defs>
<linearGradient id="paint0_linear_141_4174" x1="0" y1="90.2128" x2="160" y2="90.2128" gradientUnits="userSpaceOnUse">
<stop stop-color="#00C4FF"/>
<stop offset="0.503493" stop-color="#00EDA0"/>
<stop offset="1" stop-color="#00FF6D"/>
</linearGradient>
</defs>
</svg>
