<svg width="76" height="22" viewBox="0 0 76 22" fill="none" xmlns="http://www.w3.org/2000/svg">
<mask id="mask0_243_8061" style="mask-type:alpha" maskUnits="userSpaceOnUse" x="0" y="0" width="76" height="22">
<path d="M25.5406 7.68386C25.5642 7.72928 25.7618 7.61177 25.7618 7.39551C25.7618 4.07227 29.0043 4.44208 31.3296 4.44064C32.3971 4.44064 32.9869 4.44064 33.7883 4.46587C34.025 4.4738 34.3081 4.59274 34.4629 4.7571C34.5337 4.83207 34.3855 5.17088 34.2639 5.33957C33.4846 6.41872 32.7068 7.50076 31.8751 8.54171C31.6923 8.77095 31.3067 8.92233 30.9956 8.95909C30.4176 9.0283 29.8263 8.97495 29.2409 8.99298C26.6723 9.07299 25.517 10.1853 25.489 12.6752C25.4603 15.2718 25.4839 17.8684 25.4794 20.465C25.4772 21.9464 25.4323 21.9832 23.8759 21.9933C21.1119 22.0106 21.2903 22.1576 21.2933 19.4342C21.2985 14.9662 21.2918 10.4982 21.297 6.03089C21.2985 4.5221 21.3729 4.45577 22.8636 4.44929C24.5598 4.44112 25.4332 5.25379 25.4839 6.88729C25.492 7.13239 25.4957 7.34865 25.5406 7.68458V7.68386Z" fill="#32005E"/>
<path d="M37.1412 14.618C37.184 16.1505 38.18 17.668 39.5292 18.0508C41.4225 18.5878 43.3003 18.7349 44.8692 17.1583C45.3852 16.64 48.1669 16.8858 48.5363 17.5123C48.6948 17.7819 48.5982 18.3175 48.4257 18.6318C47.3611 20.5753 45.5172 21.4829 43.4219 21.8397C40.1175 22.4034 36.0339 21.5305 34.0757 18.2872C31.8396 14.5841 32.4781 8.39968 36.244 5.8175C39.2019 3.78895 44.6281 3.63324 47.4296 6.45403C49.017 8.05149 49.4225 10.1226 49.449 12.2715C49.477 14.5343 49.4615 14.5365 47.1856 14.5394C44.2919 14.543 41.3982 14.5394 38.5052 14.548C38.0495 14.5495 37.5932 14.5935 37.142 14.618H37.1412ZM41.2419 11.4879V11.4958C42.2534 11.4958 43.2656 11.5023 44.2771 11.4944C45.501 11.4843 45.7553 11.0684 45.2459 9.93731C44.5167 8.31966 43.0268 7.59878 40.7818 7.77684C39.1812 7.90371 37.5563 9.1912 37.1855 10.6207C37.038 11.1902 37.2091 11.498 37.8564 11.4915C38.9851 11.4807 40.1131 11.4886 41.2419 11.4886V11.4879Z" fill="#32005E"/>
<path d="M16.2077 10.7108C19.1597 11.9767 19.9626 14.2244 19.5608 16.9911C19.1818 19.6028 17.2325 21.5081 14.2982 21.7193C10.6259 21.9832 6.93007 21.9652 3.24305 21.9832C-0.646714 22.0019 -0.36287 22.3451 0.651595 18.7529C1.22592 16.7186 1.77075 14.6663 2.52275 12.6932C3.08086 11.2291 2.90613 9.94524 2.4011 8.52944C1.55326 6.14838 0.889729 3.70533 0.125193 1.29544C-0.0989326 0.58898 -0.097458 -0.00430176 0.838121 2.35015e-05C4.89524 0.0202081 8.95753 -0.0230446 13.008 0.167988C15.3731 0.279724 17.4382 1.18442 18.2425 3.69091C19.0594 6.23489 18.4232 8.56765 16.2077 10.7101V10.7108ZM5.18867 17.7502C7.75654 17.7502 9.90122 17.7963 12.0422 17.7365C13.9281 17.6831 14.9448 16.7936 14.9315 15.3749C14.9182 13.9915 13.6627 12.8583 11.9508 12.7898C10.5353 12.7336 9.11161 12.7257 7.69977 12.8158C7.27511 12.8432 6.64549 13.182 6.5091 13.528C6.0085 14.8011 5.67526 16.1376 5.18867 17.7502ZM5.21669 4.32601C5.676 5.80597 6.01292 7.08625 6.49214 8.31318C6.62264 8.64767 7.17042 9.02108 7.54126 9.03622C8.95089 9.09389 10.3812 9.12489 11.7746 8.94899C13.0169 8.79184 13.6059 7.87272 13.6671 6.65444C13.7305 5.40372 13.2137 4.43774 11.8992 4.35989C9.78399 4.23518 7.65553 4.32673 5.21669 4.32673V4.32601Z" fill="#32005E"/>
<path d="M72.5505 10.7108C75.5025 11.9767 76.3053 14.2244 75.9035 16.9911C75.5246 19.6028 73.5753 21.5081 70.641 21.7193C66.9687 21.9832 63.2728 21.9652 59.5858 21.9832C55.6961 22.0019 55.9799 22.3451 56.9944 18.7529C57.5687 16.7186 58.1135 14.6663 58.8655 12.6932C59.4236 11.2291 59.2489 9.94524 58.7439 8.52944C57.8953 6.14911 57.2318 3.70605 56.468 1.29616C56.2438 0.58898 56.2446 -0.00430176 57.1809 2.35015e-05C61.238 0.0202081 65.3003 -0.0230446 69.3508 0.167988C71.7159 0.279724 73.781 1.18442 74.5853 3.69091C75.4022 6.23489 74.7659 8.56765 72.5505 10.7101V10.7108ZM61.5314 17.7502C64.0993 17.7502 66.244 17.7963 68.385 17.7365C70.2709 17.6831 71.2876 16.7936 71.2743 15.3749C71.261 13.9915 70.0055 12.8583 68.2936 12.7898C66.878 12.7336 65.4544 12.7257 64.0425 12.8158C63.6179 12.8432 62.9883 13.182 62.8519 13.528C62.3513 14.8011 62.018 16.1376 61.5314 17.7502ZM61.5595 4.32601C62.0188 5.80597 62.3557 7.08625 62.8349 8.31318C62.9654 8.64767 63.5132 9.02108 63.884 9.03622C65.2937 9.09389 66.7239 9.12489 68.1174 8.94899C69.3596 8.79184 69.9487 7.87272 70.0099 6.65444C70.0733 5.40372 69.5565 4.43774 68.242 4.35989C66.1268 4.23518 63.9983 4.32673 61.5595 4.32673V4.32601Z" fill="#32005E"/>
<path d="M56.9691 9.60426H51.8083C51.4183 9.60426 51.1021 9.91346 51.1021 10.2949V12.1273C51.1021 12.5087 51.4183 12.8179 51.8083 12.8179H56.9691C57.3592 12.8179 57.6754 12.5087 57.6754 12.1273V10.2949C57.6754 9.91346 57.3592 9.60426 56.9691 9.60426Z" fill="#32005E"/>
</mask>
<g mask="url(#mask0_243_8061)">
<rect x="-18.6665" y="-8.41167" width="113.331" height="39.1466" fill="#00BD81"/>
</g>
</svg>
