<svg width="210" height="204" viewBox="0 0 210 204" fill="none" xmlns="http://www.w3.org/2000/svg">
<path d="M156.443 88.3999L57.6662 47.3943L82.0173 1.44745L180.938 42.5134L156.443 88.3999Z" fill="#5FEDBF"/>
<path d="M149.411 80.1357L69.3558 46.9033C68.7541 45.2218 68.4167 44.2779 67.8175 42.5964L84.3336 11.4483C86.1841 10.7812 87.2189 10.4061 89.0694 9.73654L169.22 43.0092C169.819 44.6932 170.154 45.6372 170.751 47.3212L154.149 78.4341C152.299 79.0986 151.261 79.4712 149.413 80.1357H149.411Z" stroke="#B3FFD3" stroke-width="2" stroke-miterlimit="10"/>
<path d="M133.293 50.7823C137.253 43.3439 134.179 34.7023 126.424 31.4853C118.67 28.2657 109.176 31.6917 105.223 39.1301C101.27 46.566 104.349 55.2 112.099 58.417C119.846 61.6341 129.335 58.2182 133.293 50.7823Z" fill="#B3FFD3"/>
<path d="M135.75 51.8017C140.405 43.0619 136.792 32.9075 127.678 29.1241C118.564 25.3407 107.411 29.3657 102.766 38.1106C98.123 46.8504 101.741 56.9923 110.845 60.7731C119.949 64.5515 131.097 60.539 135.75 51.8043V51.8017Z" stroke="white" stroke-width="2" stroke-miterlimit="10"/>
<path d="M125.312 41.0079C125.239 39.6688 124.443 38.4353 123.086 37.8136C122.474 37.5316 121.789 37.4511 121.097 37.5291C118.217 37.8463 117.514 41.1539 118.672 43.0594C119.166 43.8725 119.863 44.5547 120.475 45.2922C121.336 46.3293 122.346 47.9177 121.412 49.2745C120.787 50.1807 119.752 50.8654 118.63 51.0592C115.233 51.6432 113.003 48.0864 114.584 45.3552" stroke="#2C2C7C" stroke-width="2" stroke-miterlimit="10"/>
<path d="M124.015 36.0111L114.77 53.39" stroke="#2C2C7C" stroke-width="2" stroke-miterlimit="10"/>
<path d="M92.438 19.0075C92.1082 18.0837 91.0206 17.6331 90.0059 17.9981L88.0421 18.708C87.03 19.073 86.4736 20.1176 86.8034 21.0415L87.4429 22.8312C87.7727 23.755 88.8604 24.2056 89.8725 23.8406L91.8363 23.1308C92.8484 22.7658 93.4048 21.7211 93.075 20.7973L92.438 19.0075Z" stroke="#2C2C7C" stroke-width="2" stroke-miterlimit="10"/>
<path d="M103.37 25.069L102.733 23.2792C102.403 22.3554 101.315 21.9048 100.301 22.2698L98.337 22.9797C97.3249 23.3447 96.7685 24.3893 97.0983 25.3131L97.7353 27.1029C98.0651 28.0267 99.1527 28.4773 100.165 28.1123L102.129 27.4024C103.143 27.0374 103.697 25.9928 103.367 25.069H103.37Z" fill="#B3FFD3"/>
<path d="M140.632 63.0565C140.304 62.1352 139.217 61.6821 138.202 62.0471L136.238 62.7544C135.224 63.1194 134.67 64.1615 134.997 65.0828L135.634 66.8701C135.961 67.7914 137.049 68.242 138.064 67.8795L140.027 67.1721C141.042 66.8071 141.596 65.765 141.269 64.8437L140.632 63.0565Z" stroke="#2C2C7C" stroke-width="2" stroke-miterlimit="10"/>
<path d="M151.553 69.1129L150.919 67.3257C150.592 66.4044 149.504 65.9513 148.489 66.3163L146.526 67.0237C145.511 67.3886 144.957 68.4308 145.284 69.3521L145.919 71.1368C146.246 72.0581 147.334 72.5087 148.348 72.1462L150.312 71.4389C151.327 71.0739 151.883 70.0317 151.553 69.1104V69.1129Z" fill="#B3FFD3"/>
<path d="M138.542 57.2793L154.167 63.7662" stroke="white" stroke-width="2" stroke-miterlimit="10"/>
<path d="M36.7841 5.04709L31.7739 12.1683" stroke="#2C2C7C" stroke-width="2" stroke-miterlimit="10"/>
<path d="M32.5644 5.16033L31.1973 7.10363L34.0046 3.11383L34.8505 1.91312" stroke="#2C2C7C" stroke-width="2" stroke-miterlimit="10"/>
<path d="M39.4604 10.0112L34.4477 17.1299" stroke="#2C2C7C" stroke-width="2" stroke-miterlimit="10"/>
<path d="M42.5295 14.4112L37.5167 21.5324" stroke="#2C2C7C" stroke-width="2" stroke-miterlimit="10"/>
<path d="M46.2758 17.8524L41.2631 24.9736" stroke="#2C2C7C" stroke-width="2" stroke-miterlimit="10"/>
<path d="M50.3998 20.7546L45.3871 27.8758" stroke="#2C2C7C" stroke-width="2" stroke-miterlimit="10"/>
<path d="M58.6427 25.7488L53.63 32.8675" stroke="#2C2C7C" stroke-width="2" stroke-miterlimit="10"/>
<path d="M63.1443 27.7927L58.1316 34.9139" stroke="#2C2C7C" stroke-width="2" stroke-miterlimit="10"/>
<path d="M67.6435 29.8393L62.9329 36.5326" stroke="#2C2C7C" stroke-width="2" stroke-miterlimit="10"/>
<path d="M72.1451 31.8858L68.5901 36.9354" stroke="#2C2C7C" stroke-width="2" stroke-miterlimit="10"/>
<path d="M54.5238 23.657L49.5135 30.7782" stroke="#2C2C7C" stroke-width="2" stroke-miterlimit="10"/>
<path d="M34.0045 3.11401L31.1947 7.10381C30.1977 13.1527 37.3077 22.9548 48.1539 30.0231C58.8441 36.9883 69.5795 38.924 73.5524 34.9493L76.1608 31.244" stroke="#2C2C7C" stroke-width="2" stroke-miterlimit="10"/>
<path d="M51.7293 25.4568C39.9414 17.6634 32.056 7.39821 34.118 2.5299C36.1775 -2.33841 47.4039 0.0302933 59.1917 7.82362C70.9796 15.6169 78.865 25.8822 76.803 30.7505C74.7435 35.6188 63.5171 33.2501 51.7293 25.4568Z" fill="#F4B04D"/>
<mask id="mask0_467_14053" style="mask-type:luminance" maskUnits="userSpaceOnUse" x="39" y="3" width="34" height="26">
<path d="M53.119 22.6349C44.161 16.7119 38.1689 8.91349 39.7349 5.21318C41.3009 1.51286 49.8309 3.31519 58.7888 9.2357C67.7468 15.1587 73.7389 22.9571 72.1729 26.6574C70.6069 30.3577 62.0769 28.5554 53.119 22.6349Z" fill="white"/>
</mask>
<g mask="url(#mask0_467_14053)">
<path d="M53.1189 22.6346C44.161 16.7116 38.1689 8.91326 39.7349 5.21295C41.3009 1.51263 49.8308 3.31496 58.7888 9.23547C67.7467 15.1585 73.7388 22.9569 72.1728 26.6572C70.6068 30.3575 62.0769 28.5552 53.1189 22.6346Z" fill="#F2D34E"/>
<path d="M39.0324 6.45924C40.3366 3.19188 48.7356 5.32649 57.7892 11.2269C66.8429 17.1272 73.1245 24.5581 71.8203 27.8254" stroke="#2C2C7C" stroke-width="2" stroke-miterlimit="10"/>
</g>
<path d="M41.1953 182.507L48.7131 186.902" stroke="#2C2C7C" stroke-width="2" stroke-miterlimit="10"/>
<path d="M41.6635 186.703L43.7155 187.901L39.5034 185.439L38.2344 184.699" stroke="#2C2C7C" stroke-width="2" stroke-miterlimit="10"/>
<path d="M45.9158 179.425L53.4361 183.818" stroke="#2C2C7C" stroke-width="2" stroke-miterlimit="10"/>
<path d="M50.0447 175.997L57.5651 180.389" stroke="#2C2C7C" stroke-width="2" stroke-miterlimit="10"/>
<path d="M53.1594 171.974L60.6797 176.369" stroke="#2C2C7C" stroke-width="2" stroke-miterlimit="10"/>
<path d="M55.7047 167.622L63.2251 172.015" stroke="#2C2C7C" stroke-width="2" stroke-miterlimit="10"/>
<path d="M59.9871 158.991L67.505 163.383" stroke="#2C2C7C" stroke-width="2" stroke-miterlimit="10"/>
<path d="M61.649 154.334L69.1669 158.726" stroke="#2C2C7C" stroke-width="2" stroke-miterlimit="10"/>
<path d="M63.3079 149.677L70.3751 153.805" stroke="#2C2C7C" stroke-width="2" stroke-miterlimit="10"/>
<path d="M64.9697 145.02L70.3022 148.136" stroke="#2C2C7C" stroke-width="2" stroke-miterlimit="10"/>
<path d="M58.2499 163.267L65.7702 167.662" stroke="#2C2C7C" stroke-width="2" stroke-miterlimit="10"/>
<path d="M39.5032 185.439L43.7179 187.901C49.8308 188.384 59.0003 180.478 65.1334 169.077C71.1758 157.84 72.2031 146.981 67.9053 143.359L63.9929 141.073" stroke="#2C2C7C" stroke-width="2" stroke-miterlimit="10"/>
<path d="M60.2793 165.903C53.5042 178.303 43.9369 187.022 38.9116 185.379C33.8863 183.735 35.3037 172.352 42.0789 159.955C48.854 147.555 58.4212 138.835 63.4465 140.479C68.4718 142.123 67.0544 153.506 60.2793 165.903Z" fill="#F4B04D"/>
<mask id="mask1_467_14053" style="mask-type:luminance" maskUnits="userSpaceOnUse" x="38" y="145" width="25" height="35">
<path d="M57.3513 164.752C52.2026 174.174 44.934 180.8 41.1147 179.551C37.2953 178.303 38.3729 169.654 43.5216 160.232C48.6703 150.81 55.9388 144.184 59.7582 145.433C63.5775 146.681 62.4999 155.33 57.3513 164.752Z" fill="white"/>
</mask>
<g mask="url(#mask1_467_14053)">
<path d="M57.3513 164.752C52.2026 174.174 44.934 180.8 41.1147 179.551C37.2953 178.303 38.3729 169.654 43.5216 160.232C48.6703 150.81 55.9388 144.184 59.7582 145.433C63.5775 146.681 62.4999 155.33 57.3513 164.752Z" fill="#F2D34E"/>
<path d="M42.4138 180.15C39.0476 179.126 40.4676 170.58 45.586 161.062C50.7045 151.545 57.5829 144.662 60.9465 145.687" stroke="#2C2C7C" stroke-width="2" stroke-miterlimit="10"/>
</g>
<path d="M176.608 203.57L88.3501 143.175L121.611 103.201L210 163.685L176.608 203.57Z" fill="#5FEDBF"/>
<path d="M171.424 194.04L99.8912 145.09C99.647 143.321 99.511 142.329 99.2693 140.557L121.825 113.459C123.772 113.184 124.864 113.031 126.81 112.756L198.426 161.764C198.665 163.536 198.801 164.528 199.041 166.3L176.406 193.345C174.46 193.617 173.368 193.768 171.421 194.04H171.424Z" stroke="#B3FFD3" stroke-width="2" stroke-miterlimit="10"/>
<path d="M161.67 162.003C167.073 155.537 165.837 146.447 158.908 141.707C151.98 136.965 141.987 138.369 136.589 144.841C131.196 151.308 132.437 160.39 139.361 165.127C146.285 169.865 156.272 168.468 161.67 162.003Z" fill="#B3FFD3"/>
<path d="M163.866 163.506C170.215 155.907 168.763 145.226 160.62 139.655C152.478 134.082 140.733 135.734 134.394 143.338C128.057 150.938 129.517 161.608 137.652 167.176C145.786 172.742 157.521 171.101 163.868 163.506H163.866Z" stroke="white" stroke-width="2" stroke-miterlimit="10"/>
<path d="M155.864 150.799C156.066 149.473 155.542 148.103 154.341 147.215C153.8 146.814 153.145 146.595 152.453 146.527C149.57 146.248 148.203 149.339 148.946 151.444C149.263 152.342 149.804 153.15 150.252 153.999C150.882 155.189 151.544 156.951 150.353 158.089C149.555 158.849 148.402 159.305 147.264 159.265C143.82 159.141 142.367 155.199 144.474 152.851" stroke="#2C2C7C" stroke-width="2" stroke-miterlimit="10"/>
<path d="M155.623 145.644L143.006 160.757" stroke="#2C2C7C" stroke-width="2" stroke-miterlimit="10"/>
<path d="M128.208 122.523C128.074 121.552 127.102 120.887 126.035 121.038L123.968 121.33C122.9 121.481 122.145 122.39 122.276 123.362L122.533 125.244C122.666 126.216 123.638 126.881 124.706 126.73L126.773 126.438C127.84 126.287 128.595 125.378 128.464 124.409L128.208 122.526V122.523Z" stroke="#2C2C7C" stroke-width="2" stroke-miterlimit="10"/>
<path d="M137.662 130.699L137.405 128.816C137.271 127.845 136.3 127.18 135.232 127.331L133.165 127.623C132.098 127.774 131.34 128.683 131.473 129.652L131.73 131.532C131.863 132.504 132.835 133.169 133.903 133.018L135.97 132.728C137.037 132.577 137.795 131.668 137.662 130.699Z" fill="#B3FFD3"/>
<path d="M166.336 175.523C166.205 174.554 165.233 173.89 164.165 174.038L162.098 174.328C161.031 174.476 160.273 175.382 160.406 176.354L160.663 178.232C160.794 179.201 161.766 179.866 162.833 179.717L164.9 179.428C165.968 179.279 166.726 178.373 166.592 177.404L166.336 175.526V175.523Z" stroke="#2C2C7C" stroke-width="2" stroke-miterlimit="10"/>
<path d="M175.782 183.692L175.528 181.814C175.397 180.845 174.425 180.18 173.357 180.329L171.29 180.618C170.223 180.767 169.465 181.673 169.596 182.642L169.85 184.52C169.981 185.489 170.953 186.154 172.021 186.005L174.088 185.716C175.155 185.567 175.913 184.661 175.782 183.692Z" fill="#B3FFD3"/>
<path d="M165.474 169.439L179.438 178.995" stroke="white" stroke-width="2" stroke-miterlimit="10"/>
<path d="M114.404 99.3725L20.6678 150.862L0 103.146L93.8722 51.5805L114.404 99.3725Z" fill="#5FEDBF"/>
<path d="M103.558 99.6997L27.5863 141.433C25.897 140.851 24.9503 140.524 23.2609 139.943L9.255 107.589C9.88946 105.729 10.2445 104.684 10.8764 102.824L86.9385 61.0427C88.6278 61.6293 89.5745 61.9565 91.2639 62.543L105.189 94.9422C104.552 96.8024 104.195 97.8446 103.56 99.7048L103.558 99.6997Z" stroke="#B3FFD3" stroke-width="2" stroke-miterlimit="10"/>
<path d="M70.5634 93.9431C67.23 86.2052 58.559 83.2072 51.1998 87.2473C43.8406 91.29 40.5852 100.84 43.9237 108.576C47.2621 116.306 55.928 119.297 63.2822 115.259C70.6339 111.219 73.8943 101.679 70.5634 93.9431Z" fill="#B3FFD3"/>
<path d="M72.8948 92.6616C68.9772 83.5669 58.7907 80.0427 50.1424 84.7927C41.4941 89.5427 37.6672 100.767 41.5948 109.854C45.5174 118.939 55.7014 122.45 64.3396 117.705C72.9779 112.96 76.8098 101.749 72.8948 92.6591V92.6616Z" stroke="white" stroke-width="2" stroke-miterlimit="10"/>
<path d="M57.9422 94.0662C56.8496 93.2884 55.3918 93.1373 54.0574 93.8094C53.4557 94.1115 52.9648 94.5948 52.5921 95.1838C51.0412 97.6306 53.1838 100.243 55.3969 100.53C56.341 100.654 57.3078 100.535 58.2645 100.518C59.6115 100.493 61.4821 100.697 61.9605 102.275C62.2777 103.33 62.1669 104.563 61.6156 105.56C59.9488 108.578 55.777 108.095 54.634 105.155" stroke="#2C2C7C" stroke-width="2" stroke-miterlimit="10"/>
<path d="M53.2316 91.9568L61.0289 110.033" stroke="#2C2C7C" stroke-width="2" stroke-miterlimit="10"/>
<path d="M20.2244 105.983C19.2979 105.663 18.2656 106.23 17.9182 107.249L17.246 109.225C16.8985 110.245 17.3693 111.329 18.2959 111.649L20.091 112.268C21.0175 112.588 22.0497 112.022 22.3972 111.002L23.0694 109.026C23.4168 108.007 22.946 106.922 22.0195 106.602L20.2244 105.983Z" stroke="#2C2C7C" stroke-width="2" stroke-miterlimit="10"/>
<path d="M31.7882 101.238L29.9931 100.618C29.0666 100.299 28.0343 100.865 27.6869 101.885L27.0147 103.861C26.6672 104.88 27.1355 105.965 28.062 106.285L29.8571 106.904C30.7837 107.224 31.8159 106.657 32.1634 105.638L32.8381 103.662C33.1855 102.642 32.7172 101.557 31.7907 101.238H31.7882Z" fill="#B3FFD3"/>
<path d="M84.7329 95.8812C83.8089 95.5615 82.7767 96.1279 82.4267 97.1474L81.752 99.1234C81.4046 100.143 81.8703 101.228 82.7968 101.547L84.5894 102.167C85.5134 102.486 86.5457 101.92 86.8956 100.901L87.5704 98.9246C87.9178 97.9051 87.4521 96.8202 86.5281 96.5005L84.7355 95.8812H84.7329Z" stroke="#2C2C7C" stroke-width="2" stroke-miterlimit="10"/>
<path d="M96.2892 91.1388L94.4966 90.5195C93.5726 90.1998 92.5403 90.7662 92.1904 91.7857L91.5156 93.7617C91.1682 94.7812 91.634 95.8661 92.558 96.1858L94.3506 96.805C95.2746 97.1247 96.3068 96.5584 96.6568 95.5389L97.3315 93.5629C97.679 92.5434 97.2132 91.4585 96.2892 91.1388Z" fill="#B3FFD3"/>
<path d="M78.917 93.9052L93.7462 85.7595" stroke="white" stroke-width="2" stroke-miterlimit="10"/>
<path d="M170.553 124.202L177.348 129.65" stroke="#2C2C7C" stroke-width="2" stroke-miterlimit="10"/>
<path d="M170.402 128.421L172.258 129.909L168.451 126.856L167.303 125.937" stroke="#2C2C7C" stroke-width="2" stroke-miterlimit="10"/>
<path d="M175.676 121.846L182.469 127.294" stroke="#2C2C7C" stroke-width="2" stroke-miterlimit="10"/>
<path d="M180.261 119.06L187.057 124.507" stroke="#2C2C7C" stroke-width="2" stroke-miterlimit="10"/>
<path d="M183.932 115.538L190.727 120.986" stroke="#2C2C7C" stroke-width="2" stroke-miterlimit="10"/>
<path d="M187.089 111.604L193.882 117.051" stroke="#2C2C7C" stroke-width="2" stroke-miterlimit="10"/>
<path d="M192.59 103.692L199.383 109.14" stroke="#2C2C7C" stroke-width="2" stroke-miterlimit="10"/>
<path d="M194.914 99.3299L201.707 104.777" stroke="#2C2C7C" stroke-width="2" stroke-miterlimit="10"/>
<path d="M197.238 94.9648L203.625 100.085" stroke="#2C2C7C" stroke-width="2" stroke-miterlimit="10"/>
<path d="M199.564 90.6025L204.381 94.4664" stroke="#2C2C7C" stroke-width="2" stroke-miterlimit="10"/>
<path d="M190.244 107.669L197.039 113.117" stroke="#2C2C7C" stroke-width="2" stroke-miterlimit="10"/>
<path d="M168.451 126.856L172.257 129.909C178.232 131.283 188.464 124.804 196.201 114.426C203.824 104.196 206.43 93.6032 202.711 89.3893L199.177 86.5575" stroke="#2C2C7C" stroke-width="2" stroke-miterlimit="10"/>
<path d="M191.865 110.572C183.346 121.844 172.605 129.068 167.874 126.707C163.144 124.346 166.213 113.293 174.732 102.021C183.252 90.7487 193.993 83.5243 198.724 85.8854C203.454 88.2466 200.385 99.2997 191.865 110.572Z" fill="#F4B04D"/>
<mask id="mask2_467_14053" style="mask-type:luminance" maskUnits="userSpaceOnUse" x="169" y="89" width="28" height="33">
<path d="M189.136 109.009C182.663 117.575 174.501 123.065 170.906 121.27C167.31 119.475 169.644 111.078 176.117 102.509C182.59 93.943 190.753 88.453 194.348 90.2477C197.943 92.0425 195.609 100.44 189.136 109.006V109.009Z" fill="white"/>
</mask>
<g mask="url(#mask2_467_14053)">
<path d="M189.136 109.009C182.663 117.575 174.501 123.065 170.906 121.27C167.31 119.475 169.644 111.078 176.117 102.509C182.59 93.943 190.753 88.453 194.348 90.2477C197.943 92.0425 195.609 100.44 189.136 109.006V109.009Z" fill="#F2D34E"/>
<path d="M172.104 122.05C168.924 120.543 171.583 112.299 178.041 103.634C184.499 94.9701 192.311 89.1679 195.491 90.6757" stroke="#2C2C7C" stroke-width="2" stroke-miterlimit="10"/>
</g>
</svg>
