<svg width="219" height="205" viewBox="0 0 219 205" fill="none" xmlns="http://www.w3.org/2000/svg">
<path d="M49.0851 192.261C34.1161 174.482 25.8499 152.012 26.0021 128.812C26.2511 92.3788 37.7823 41.432 94.6426 17.1711C188.587 -22.9126 239.906 96.3396 210.909 118.596C184.858 138.593 124.484 105.866 95.8877 189.106C89.2056 208.559 60.4157 209.068 49.0851 192.261Z" fill="#E3E8F9" fill-opacity="0.25"/>
<path d="M169.379 5.93542C150.059 -1.22232 128.36 -0.00331471 108.589 5.81039C88.8188 11.6241 70.6313 21.7512 52.9679 32.3263C39.2774 40.526 25.5346 49.2465 15.272 61.4261C5.0094 73.6162 -1.40603 89.9529 1.8541 105.508C5.54402 123.095 20.3037 135.931 34.2038 147.413C51.5318 161.728 69.1218 176.2 89.6051 185.535C110.088 194.871 134.146 198.601 155.227 190.703C179.484 181.607 196.162 158.425 203.846 133.816C217.652 89.5361 222.442 25.5958 169.389 5.93542H169.379Z" stroke="url(#paint0_linear_467_14216)" stroke-width="2" stroke-miterlimit="10"/>
<defs>
<linearGradient id="paint0_linear_467_14216" x1="1" y1="98" x2="213" y2="98" gradientUnits="userSpaceOnUse">
<stop stop-color="#00C4FF"/>
<stop offset="0.503493" stop-color="#00EDA0"/>
<stop offset="1" stop-color="#00FF6D"/>
</linearGradient>
</defs>
</svg>
