<svg width="117" height="222" viewBox="0 0 117 222" fill="none" xmlns="http://www.w3.org/2000/svg">
<path d="M95.443 62.4438L106.508 38.7418C107.538 35.6478 105.673 32.2952 102.468 31.6247C97.4305 30.5665 90.1863 32.2225 86.0733 47.5957C79.2996 72.8649 95.4511 62.4438 95.4511 62.4438H95.443Z" fill="#ED795A"/>
<path d="M83.226 59.4144L94.2911 35.7124C95.3214 32.6184 93.4556 29.2659 90.2512 28.5954C85.2135 27.5371 77.9692 29.1932 73.8563 44.5663C67.0825 69.8355 83.2341 59.4144 83.2341 59.4144H83.226Z" fill="#ED795A"/>
<path d="M89.2615 82.252C89.2615 82.252 89.7239 75.9994 97.609 77.0899C99.8642 77.405 105.316 93.3679 107.717 100.743C108.488 103.102 108.447 105.647 107.611 107.982L97.1791 137.137L81.9117 121.368L92.7335 99.3297C92.7335 99.3297 87.1279 86.3397 89.2615 82.252Z" fill="#ED795A"/>
<path d="M45.4714 180.469C36.0531 170.282 12.6978 158.666 13.6226 125.843L49.706 129.099L45.4714 180.469Z" fill="#ED795A"/>
<path d="M68.5671 177.755L45.4714 180.477L26.4319 113.766L52.9104 77.2919L73.8482 44.5745L89.9267 58.5016L100.197 119.728C99.8805 135.149 96.2056 150.321 89.4237 164.191L87.4849 166.809C82.9745 172.908 76.1277 176.874 68.5752 177.763L68.5671 177.755Z" fill="#ED795A"/>
<path d="M97.2196 100.259C97.2196 100.259 82.5282 87.4949 92.7578 78.0594C98.7609 72.5257 97.2196 100.259 97.2196 100.259Z" fill="#EB966E"/>
<path d="M93.0175 37.3281L79.1049 61.2159L58.4348 91.0736" stroke="#B34725" stroke-width="3.29" stroke-linecap="round" stroke-linejoin="round"/>
<path d="M81.4655 84.0858L70.3192 102.876" stroke="#B34725" stroke-width="3.29" stroke-linecap="round" stroke-linejoin="round"/>
<path d="M31.2911 141.458L33.8384 194.372C34.5847 209.939 47.7834 222.178 63.4158 221.434C63.6105 221.426 63.8051 221.418 63.9917 221.402C81.6278 220.36 93.9585 203.541 89.8618 186.423L76.5982 130.989L31.2993 141.458H31.2911Z" fill="#ED795A"/>
<path d="M13.6226 125.851C14.8475 115.204 13.7767 115.058 14.45 104.993C15.2288 93.2063 14.2553 80.0143 15.172 74.5048C15.4235 73.0103 17.5814 70.6434 19.2444 70.9261C23.6088 71.6693 26.7645 73.487 30.6908 92.035C30.8449 92.762 31.9157 99.8952 32.5972 106.334L47.3859 137.363L13.6226 125.843V125.851Z" fill="#ED795A"/>
<path d="M35.3311 107.796C35.3311 107.796 36.7669 112.546 49.3653 125.972C59.4083 136.684 54.6058 152.914 54.6058 152.914" stroke="#B34725" stroke-width="3.29" stroke-linecap="round" stroke-linejoin="round"/>
<path d="M25.9614 19.5799C26.01 24.847 21.7673 29.1609 16.47 29.2174C11.1808 29.2659 6.84883 25.0409 6.79204 19.7657C6.74337 14.4986 10.9861 10.1848 16.2834 10.1282C21.5726 10.0797 25.9046 14.3047 25.9614 19.5799Z" fill="#5B6CCF"/>
<path d="M96.1493 19.4031L77.346 19.5829C73.8918 19.6159 71.1186 22.4311 71.1517 25.8708L71.2176 32.7048C71.2508 36.1445 74.0778 38.9062 77.5319 38.8732L96.3353 38.6934C99.7894 38.6604 102.563 35.8452 102.53 32.4055L102.464 25.5715C102.431 22.1318 99.6035 19.3701 96.1493 19.4031Z" fill="#5B6CCF"/>
<path d="M37.6026 63.3243L8.804 63.599C7.93599 63.607 7.2221 62.9042 7.20588 62.0398C7.19777 61.1754 7.90354 60.4645 8.77155 60.4484L37.5701 60.1737C38.4382 60.1657 39.152 60.8685 39.1683 61.7329C39.1764 62.5972 38.4706 63.3081 37.6026 63.3243Z" fill="white"/>
<path d="M101.251 62.7104L72.4528 62.9851C71.5848 62.9932 70.8709 62.2904 70.8547 61.426C70.8466 60.5616 71.5523 59.8507 72.4203 59.8345L101.219 59.5599C102.087 59.5518 102.801 60.2546 102.817 61.119C102.825 61.9834 102.119 62.6943 101.251 62.7104Z" fill="white"/>
<path d="M100.757 12.2609L71.9581 12.5355C71.09 12.5436 70.3762 11.8408 70.3599 10.9764C70.3518 10.112 71.0576 9.40112 71.9256 9.38496L100.724 9.1103C101.592 9.10222 102.306 9.80504 102.322 10.6694C102.33 11.5338 101.625 12.2447 100.757 12.2609Z" fill="white"/>
<path d="M23.1303 53.2587L10.2804 53.3799C8.5444 53.396 7.10853 51.9985 7.0923 50.2616C7.07608 48.5328 8.4795 47.103 10.2236 47.0868L23.0735 46.9656C24.8095 46.9495 26.2454 48.347 26.2616 50.0839C26.2778 51.8127 24.8744 53.2425 23.1303 53.2587Z" fill="white"/>
<path d="M48.7165 53.0163L35.8666 53.1375C34.1306 53.1536 32.6947 51.7561 32.6785 50.0192C32.6623 48.2905 34.0657 46.8606 35.8098 46.8444L48.6597 46.7233C50.3957 46.7071 51.8316 48.1047 51.8478 49.8415C51.864 51.5703 50.4606 53.0002 48.7165 53.0163Z" fill="white"/>
<path d="M74.3025 52.7659L61.4527 52.8871C59.7166 52.9033 58.2808 51.5057 58.2645 49.7689C58.2483 48.0401 59.6517 46.6102 61.3959 46.594L74.2457 46.4729C75.9818 46.4567 77.4176 47.8543 77.4339 49.5911C77.4501 51.3199 76.0467 52.7498 74.3025 52.7659Z" fill="white"/>
<path d="M99.8966 52.5236L87.0468 52.6447C85.3108 52.6609 83.8749 51.2633 83.8587 49.5265C83.8424 47.7977 85.2459 46.3678 86.99 46.3517L99.8398 46.2305C101.576 46.2143 103.012 47.6119 103.028 49.3488C103.044 51.0775 101.641 52.5074 99.8966 52.5236Z" fill="white"/>
<g clip-path="url(#clip0_467_14219)">
<path d="M110.087 0H6.91256C3.09486 0 0 3.09297 0 6.90835V65.0917C0 68.907 3.09486 72 6.91256 72H110.087C113.905 72 117 68.907 117 65.0917V6.90835C117 3.09297 113.905 0 110.087 0Z" fill="#5FEDBF"/>
<path opacity="0.8" d="M29.6372 10.1538H14.6704C11.9211 10.1538 9.69226 12.9559 9.69226 16.4124V23.2799C9.69226 26.7364 11.9211 29.5385 14.6704 29.5385H29.6372C32.3865 29.5385 34.6153 26.7364 34.6153 23.2799V16.4124C34.6153 12.9559 32.3865 10.1538 29.6372 10.1538Z" fill="#00B379"/>
<path d="M40.2287 63.9272H11.2823C10.4101 63.9272 9.69275 63.2103 9.69275 62.3386C9.69275 61.4669 10.4101 60.75 11.2823 60.75H40.2205C41.0927 60.75 41.8101 61.4669 41.8101 62.3386C41.8101 63.2103 41.0927 63.9272 40.2205 63.9272H40.2287Z" fill="white"/>
<path d="M104.191 63.9272H75.2443C74.3721 63.9272 73.6548 63.2103 73.6548 62.3386C73.6548 61.4669 74.3721 60.75 75.2443 60.75H104.183C105.055 60.75 105.772 61.4669 105.772 62.3386C105.772 63.2103 105.055 63.9272 104.183 63.9272H104.191Z" fill="white"/>
<path d="M104.374 13.331H75.4356C74.5634 13.331 73.8461 12.6141 73.8461 11.7424C73.8461 10.8707 74.5634 10.1538 75.4356 10.1538H104.374C105.246 10.1538 105.963 10.8707 105.963 11.7424C105.963 12.6141 105.246 13.331 104.374 13.331Z" fill="white"/>
<path opacity="0.8" d="M25.7759 48.2153H12.8637C11.1193 48.2153 9.69275 46.7897 9.69275 45.0463C9.69275 43.3029 11.1193 41.8772 12.8637 41.8772H25.7759C27.5203 41.8772 28.9468 43.3029 28.9468 45.0463C28.9468 46.7897 27.5203 48.2153 25.7759 48.2153Z" fill="#00B379"/>
<path opacity="0.8" d="M51.4455 48.1881H38.5334C36.789 48.1881 35.3624 46.7624 35.3624 45.019C35.3624 43.2757 36.789 41.85 38.5334 41.85H51.4455C53.19 41.85 54.6165 43.2757 54.6165 45.019C54.6165 46.7624 53.19 48.1881 51.4455 48.1881Z" fill="#00B379"/>
<path opacity="0.8" d="M77.1556 48.1881H64.2435C62.499 48.1881 61.0725 46.7624 61.0725 45.019C61.0725 43.2757 62.499 41.85 64.2435 41.85H77.1556C78.9001 41.85 80.3266 43.2757 80.3266 45.019C80.3266 46.7624 78.9001 48.1881 77.1556 48.1881Z" fill="#00B379"/>
<path opacity="0.8" d="M102.852 48.1881H89.9394C88.195 48.1881 86.7684 46.7624 86.7684 45.019C86.7684 43.2757 88.195 41.85 89.9394 41.85H102.852C104.596 41.85 106.023 43.2757 106.023 45.019C106.023 46.7624 104.596 48.1881 102.852 48.1881Z" fill="#00B379"/>
</g>
<path d="M86.0734 61.3613C86.0734 61.3613 86.5357 55.1086 94.4209 56.1992C96.8789 56.5385 103.125 75.4338 105.097 81.5976C105.494 82.8417 105.47 84.1747 105.032 85.4026L93.9909 116.246L78.7236 100.477L89.5454 78.439C89.5454 78.439 83.9398 65.449 86.0734 61.3613Z" fill="#ED795A"/>
<path d="M103.231 87.8747L92.2631 73.8667" stroke="#B34725" stroke-width="3.29" stroke-linecap="round" stroke-linejoin="round"/>
<path d="M93.2609 113.233C93.2609 113.233 96.3273 101.915 96.3922 101.026C96.4571 100.138 92.547 94.927 92.547 94.927C92.547 94.927 82.3174 83.0275 87.2253 74.424" stroke="#B34725" stroke-width="3.29" stroke-linecap="round" stroke-linejoin="round"/>
<path d="M86.917 72.7196C86.917 72.7196 84.2156 63.381 86.3573 60.1334" stroke="#B34725" stroke-width="3.29" stroke-linecap="round" stroke-linejoin="round"/>
<defs>
<clipPath id="clip0_467_14219">
<rect width="117" height="72" fill="white"/>
</clipPath>
</defs>
</svg>
