<svg width="120" height="217" viewBox="0 0 120 217" fill="none" xmlns="http://www.w3.org/2000/svg">
<g clip-path="url(#clip0_467_14185)">
<path d="M110.532 142.548L98.6866 91.8006C97.99 88.8225 96.9204 85.9444 95.4975 83.2411L77.796 49.5479C75.3433 44.876 70.7662 41.6181 65.3482 40.6837L45.9154 37.3358C45.9154 37.3358 36.2736 71.8185 41.4477 109.714C41.7512 111.953 42.1542 114.001 42.6368 115.895L33.4975 115.64L46.0995 149.388C48.3831 155.499 54.1841 165.078 59.6965 168.776L63.9254 171.874L110.537 142.543L110.532 142.548Z" fill="#ED795A"/>
<path d="M18.0597 72.648L8.2189 70.4894C5.50248 69.8948 2.77611 71.7885 2.42785 74.5817C1.88059 78.9739 3.81094 84.985 17.2239 87.0936C39.2786 90.5564 18.0597 72.648 18.0597 72.648Z" fill="#ED795A"/>
<path d="M23.7562 48.9833L13.9353 46.7447C11.2239 46.1251 8.48257 48.0039 8.11441 50.7921C7.53232 55.1793 9.41292 61.2104 22.801 63.4289C44.8209 67.0766 23.7562 48.9883 23.7562 48.9883V48.9833Z" fill="#ED795A"/>
<path d="M14.9552 85.01L6.30841 84.5303C2.05468 84.2954 -1.16423 88.6176 0.40791 92.5601C1.81587 96.0928 5.9303 99.3957 16.4029 99.3507C38.8059 99.2508 14.9552 85.01 14.9552 85.01Z" fill="#ED795A"/>
<path d="M17.398 104.427L7.34331 103.733C4.15923 103.513 1.71147 106.676 2.76619 109.679C3.91545 112.952 7.86569 116.33 19.209 116.54C41.5274 116.954 17.398 104.427 17.398 104.427Z" fill="#ED795A"/>
<path d="M63.1045 164.439L64.1542 190.457C65.403 207.101 80.7463 219.083 97.0796 216.01C97.2985 215.97 97.5224 215.925 97.7413 215.88C113.1 212.822 122.776 197.432 119.289 182.102L110.214 141.523L63.1045 164.434V164.439Z" fill="#ED795A"/>
<path d="M22.5732 135.8L80.1974 135.244C84.2198 135.205 87.4493 131.899 87.4107 127.859L86.2579 7.24251C86.2193 3.20259 82.9271 -0.040984 78.9047 -0.00220236L21.2805 0.553374C17.2581 0.592155 14.0286 3.89861 14.0672 7.93853L15.22 128.555C15.2586 132.595 18.5508 135.838 22.5732 135.8Z" fill="#3D2213"/>
<path d="M22.6798 124.053L79.6324 123.503C81.8661 123.482 83.6596 121.646 83.6381 119.402L82.568 7.44492C82.5466 5.20144 80.7184 3.4002 78.4846 3.42174L21.532 3.97084C19.2982 3.99237 17.5048 5.82853 17.5262 8.07201L18.5963 120.029C18.6178 122.273 20.446 124.074 22.6798 124.053Z" fill="white"/>
<path d="M80.0398 172.343C80.0398 172.343 87.9154 172.573 89.6468 168.276" stroke="#B34725" stroke-width="3.29" stroke-linecap="round" stroke-linejoin="round"/>
<g opacity="0.8">
<path fill-rule="evenodd" clip-rule="evenodd" d="M75.1844 60.6914C73.4143 67.0044 70.87 72.6336 67.6269 77.4205C63.5281 83.4729 58.3014 88.1826 52.0956 91.4183L50.9804 92L49.8673 91.4204C44.3017 88.5224 39.5249 84.4382 35.6395 79.2677C35.3926 78.9383 35.1478 78.6047 34.9072 78.2648C34.7105 77.9896 34.518 77.7124 34.3276 77.4309C34.2899 77.3767 34.2523 77.3204 34.2167 77.2662C32.9718 75.4127 31.8294 73.4342 30.7958 71.3389C30.5635 70.8698 30.3375 70.3944 30.1179 69.9128C29.9547 69.5584 29.7956 69.1998 29.6387 68.8391C29.442 68.3888 29.2516 67.9343 29.0675 67.4756C28.8708 66.9919 28.6804 66.5041 28.4963 66.01C27.854 64.3024 27.2765 62.5324 26.7618 60.706C23.7614 50.0273 23.9978 41.1374 24.0083 40.7642L24.0836 38.3499L26.5065 38.4437C26.5065 38.4437 27.1426 38.4688 27.9293 38.4688C29.1721 38.4688 29.827 38.4104 30.143 38.3687C32.863 37.6244 34.4197 35.5353 34.7712 32.1558L34.993 30.0083L66.9365 30L67.1603 32.1495C67.5118 35.527 69.0685 37.616 71.7906 38.3603C72.1066 38.4041 72.7615 38.4604 74.0043 38.4604C74.791 38.4604 75.4208 38.4354 75.4292 38.4354L77.85 38.3416L77.9253 40.7538C77.9379 41.127 78.1785 50.0169 75.1823 60.6914H75.1844Z" fill="#00B379"/>
</g>
<path d="M60.3882 51.2382H59.4642V45.7528C59.4642 41.6156 56.0652 38.2287 51.9133 38.2287H49.7473C45.5953 38.2287 42.1963 41.6156 42.1963 45.7528V51.2382H41.2723C39.6433 51.2382 38.3113 52.5654 38.3113 54.1886V68.1936C38.3113 69.8168 39.6433 71.144 41.2723 71.144H60.3852C62.0142 71.144 63.3462 69.8168 63.3462 68.1936V54.1886C63.3462 52.5654 62.0142 51.2382 60.3852 51.2382H60.3882ZM44.9923 45.962C44.9923 44.6736 45.4993 43.46 46.4233 42.5393C47.3473 41.6186 48.5653 41.1134 49.8583 41.1134H51.8112C53.1042 41.1134 54.3222 41.6186 55.2462 42.5393C56.1702 43.46 56.6772 44.6736 56.6772 45.962V51.2352H44.9953V45.962H44.9923Z" fill="white"/>
<path d="M86.2488 147.52C85.5075 147.07 100.816 120.987 93.8707 105.807C90.4179 98.2614 74.6269 86.6489 71.7761 83.2011C71.2985 82.6215 70.7214 82.1418 70.0647 81.7771L42.6269 71.9484C41.1791 71.4288 39.592 72.3282 39.3184 73.8522C38.5124 78.3543 39.7562 83.9656 47.8557 88.3678C49.7662 89.4071 57.1443 92.72 60.8209 96.9472C67.5572 104.697 67.7313 122.721 69.194 132.094C73.6219 160.471 84.8906 158.362 84.8906 158.362L86.2488 147.524V147.52Z" fill="#ED795A"/>
<path d="M82.194 156.199C77.0547 155.11 71.7214 144.516 69.5522 136.237" stroke="#B34725" stroke-width="3.29" stroke-linecap="round" stroke-linejoin="round"/>
</g>
<defs>
<clipPath id="clip0_467_14185">
<rect width="120" height="216.495" fill="white"/>
</clipPath>
</defs>
</svg>
